<mxfile host="app.diagrams.net" modified="2024-04-15T06:39:31.844Z" agent="Mozilla/5.0 (Windows NT 10.0; Win64; x64) AppleWebKit/537.36 (KHTML, like Gecko) Chrome/123.0.0.0 Safari/537.36" etag="k58zIjUmgRC5qvKDF7RZ" version="24.2.5" type="device">
  <diagram name="Page-1" id="y8JiXuKn1WEfSbF1683Z">
    <mxGraphModel dx="3192" dy="1968" grid="1" gridSize="10" guides="1" tooltips="1" connect="1" arrows="1" fold="1" page="1" pageScale="1" pageWidth="3300" pageHeight="4681" math="0" shadow="0">
      <root>
        <mxCell id="0" />
        <mxCell id="1" parent="0" />
        <mxCell id="LJ63Zfr7MwNGXrE0fIQg-1" value="" style="rounded=0;whiteSpace=wrap;html=1;" parent="1" vertex="1">
          <mxGeometry x="2020" y="1220" width="170" height="60" as="geometry" />
        </mxCell>
        <mxCell id="LJ63Zfr7MwNGXrE0fIQg-2" value="material" style="text;html=1;align=center;verticalAlign=middle;whiteSpace=wrap;rounded=0;fontSize=20;" parent="1" vertex="1">
          <mxGeometry x="2025" y="1227.5" width="160" height="45" as="geometry" />
        </mxCell>
        <mxCell id="LJ63Zfr7MwNGXrE0fIQg-3" value="" style="ellipse;whiteSpace=wrap;html=1;" parent="1" vertex="1">
          <mxGeometry x="1910" y="1400" width="160" height="60" as="geometry" />
        </mxCell>
        <mxCell id="LJ63Zfr7MwNGXrE0fIQg-4" value="" style="ellipse;whiteSpace=wrap;html=1;" parent="1" vertex="1">
          <mxGeometry x="2130" y="1400" width="160" height="60" as="geometry" />
        </mxCell>
        <mxCell id="LJ63Zfr7MwNGXrE0fIQg-5" value="" style="ellipse;whiteSpace=wrap;html=1;" parent="1" vertex="1">
          <mxGeometry x="1730" y="1400" width="160" height="60" as="geometry" />
        </mxCell>
        <mxCell id="LJ63Zfr7MwNGXrE0fIQg-8" value="publication" style="text;html=1;align=center;verticalAlign=middle;whiteSpace=wrap;rounded=0;fontSize=20;" parent="1" vertex="1">
          <mxGeometry x="1960" y="1415" width="60" height="30" as="geometry" />
        </mxCell>
        <mxCell id="LJ63Zfr7MwNGXrE0fIQg-9" value="title" style="text;html=1;align=center;verticalAlign=middle;whiteSpace=wrap;rounded=0;fontSize=20;" parent="1" vertex="1">
          <mxGeometry x="2180" y="1415" width="60" height="30" as="geometry" />
        </mxCell>
        <mxCell id="LJ63Zfr7MwNGXrE0fIQg-10" value="material_id" style="text;html=1;align=center;verticalAlign=middle;whiteSpace=wrap;rounded=0;fontSize=20;" parent="1" vertex="1">
          <mxGeometry x="1780" y="1415" width="60" height="30" as="geometry" />
        </mxCell>
        <mxCell id="LJ63Zfr7MwNGXrE0fIQg-11" value="" style="endArrow=none;html=1;rounded=0;exitX=0.5;exitY=0;exitDx=0;exitDy=0;" parent="1" source="LJ63Zfr7MwNGXrE0fIQg-3" edge="1">
          <mxGeometry width="50" height="50" relative="1" as="geometry">
            <mxPoint x="2030" y="1280" as="sourcePoint" />
            <mxPoint x="2105" y="1280" as="targetPoint" />
          </mxGeometry>
        </mxCell>
        <mxCell id="LJ63Zfr7MwNGXrE0fIQg-13" value="" style="endArrow=none;html=1;rounded=0;entryX=0.5;entryY=0;entryDx=0;entryDy=0;" parent="1" target="LJ63Zfr7MwNGXrE0fIQg-4" edge="1">
          <mxGeometry width="50" height="50" relative="1" as="geometry">
            <mxPoint x="2120" y="1280" as="sourcePoint" />
            <mxPoint x="2110" y="1140" as="targetPoint" />
          </mxGeometry>
        </mxCell>
        <mxCell id="LJ63Zfr7MwNGXrE0fIQg-14" value="" style="endArrow=none;html=1;rounded=0;entryX=0.5;entryY=0;entryDx=0;entryDy=0;" parent="1" target="LJ63Zfr7MwNGXrE0fIQg-5" edge="1">
          <mxGeometry width="50" height="50" relative="1" as="geometry">
            <mxPoint x="2105" y="1280" as="sourcePoint" />
            <mxPoint x="1745.3623896059783" y="1390" as="targetPoint" />
          </mxGeometry>
        </mxCell>
        <mxCell id="LJ63Zfr7MwNGXrE0fIQg-15" value="" style="rhombus;whiteSpace=wrap;html=1;" parent="1" vertex="1">
          <mxGeometry x="1700" y="1200" width="200" height="100" as="geometry" />
        </mxCell>
        <mxCell id="LJ63Zfr7MwNGXrE0fIQg-16" value="borrowed" style="text;html=1;align=center;verticalAlign=middle;whiteSpace=wrap;rounded=0;fontSize=20;" parent="1" vertex="1">
          <mxGeometry x="1770" y="1235" width="60" height="30" as="geometry" />
        </mxCell>
        <mxCell id="LJ63Zfr7MwNGXrE0fIQg-21" value="" style="rounded=0;whiteSpace=wrap;html=1;" parent="1" vertex="1">
          <mxGeometry x="1355" y="1218.75" width="160" height="60" as="geometry" />
        </mxCell>
        <mxCell id="LJ63Zfr7MwNGXrE0fIQg-24" value="borrow" style="text;html=1;align=center;verticalAlign=middle;whiteSpace=wrap;rounded=0;fontSize=20;" parent="1" vertex="1">
          <mxGeometry x="1355" y="1226.25" width="160" height="45" as="geometry" />
        </mxCell>
        <mxCell id="LJ63Zfr7MwNGXrE0fIQg-25" value="" style="endArrow=none;html=1;rounded=0;exitX=1;exitY=0.5;exitDx=0;exitDy=0;entryX=0;entryY=0.5;entryDx=0;entryDy=0;" parent="1" source="LJ63Zfr7MwNGXrE0fIQg-24" target="LJ63Zfr7MwNGXrE0fIQg-15" edge="1">
          <mxGeometry width="50" height="50" relative="1" as="geometry">
            <mxPoint x="1605" y="1338.75" as="sourcePoint" />
            <mxPoint x="1635" y="1248.75" as="targetPoint" />
          </mxGeometry>
        </mxCell>
        <mxCell id="LJ63Zfr7MwNGXrE0fIQg-26" value="" style="endArrow=none;html=1;rounded=0;exitX=1;exitY=0.5;exitDx=0;exitDy=0;entryX=0;entryY=0.5;entryDx=0;entryDy=0;" parent="1" edge="1">
          <mxGeometry width="50" height="50" relative="1" as="geometry">
            <mxPoint x="1900" y="1249.41" as="sourcePoint" />
            <mxPoint x="2020" y="1249.41" as="targetPoint" />
          </mxGeometry>
        </mxCell>
        <mxCell id="LJ63Zfr7MwNGXrE0fIQg-27" value="" style="rhombus;whiteSpace=wrap;html=1;" parent="1" vertex="1">
          <mxGeometry x="810" y="1200" width="200" height="100" as="geometry" />
        </mxCell>
        <mxCell id="LJ63Zfr7MwNGXrE0fIQg-28" value="memebership" style="text;html=1;align=center;verticalAlign=middle;whiteSpace=wrap;rounded=0;fontSize=20;" parent="1" vertex="1">
          <mxGeometry x="830" y="1227.5" width="160" height="45" as="geometry" />
        </mxCell>
        <mxCell id="LJ63Zfr7MwNGXrE0fIQg-29" value="" style="endArrow=none;html=1;rounded=0;exitX=1;exitY=0.5;exitDx=0;exitDy=0;entryX=0;entryY=0.5;entryDx=0;entryDy=0;" parent="1" source="LJ63Zfr7MwNGXrE0fIQg-27" target="LJ63Zfr7MwNGXrE0fIQg-24" edge="1">
          <mxGeometry width="50" height="50" relative="1" as="geometry">
            <mxPoint x="1260" y="1278.75" as="sourcePoint" />
            <mxPoint x="1365" y="1290" as="targetPoint" />
          </mxGeometry>
        </mxCell>
        <mxCell id="LJ63Zfr7MwNGXrE0fIQg-33" value="" style="ellipse;whiteSpace=wrap;html=1;" parent="1" vertex="1">
          <mxGeometry x="1180" y="1310" width="160" height="60" as="geometry" />
        </mxCell>
        <mxCell id="LJ63Zfr7MwNGXrE0fIQg-34" value="" style="ellipse;whiteSpace=wrap;html=1;" parent="1" vertex="1">
          <mxGeometry x="1265" y="1417.5" width="160" height="60" as="geometry" />
        </mxCell>
        <mxCell id="LJ63Zfr7MwNGXrE0fIQg-35" value="" style="ellipse;whiteSpace=wrap;html=1;" parent="1" vertex="1">
          <mxGeometry x="1445" y="1417.5" width="160" height="60" as="geometry" />
        </mxCell>
        <mxCell id="LJ63Zfr7MwNGXrE0fIQg-37" value="" style="ellipse;whiteSpace=wrap;html=1;" parent="1" vertex="1">
          <mxGeometry x="1530" y="1323.75" width="160" height="60" as="geometry" />
        </mxCell>
        <mxCell id="LJ63Zfr7MwNGXrE0fIQg-38" value="" style="endArrow=none;html=1;rounded=0;entryX=0.5;entryY=0;entryDx=0;entryDy=0;exitX=0.5;exitY=1;exitDx=0;exitDy=0;" parent="1" source="LJ63Zfr7MwNGXrE0fIQg-21" target="LJ63Zfr7MwNGXrE0fIQg-37" edge="1">
          <mxGeometry width="50" height="50" relative="1" as="geometry">
            <mxPoint x="1435" y="1218.75" as="sourcePoint" />
            <mxPoint x="1635" y="1128.75" as="targetPoint" />
          </mxGeometry>
        </mxCell>
        <mxCell id="LJ63Zfr7MwNGXrE0fIQg-40" value="" style="endArrow=none;html=1;rounded=0;entryX=0.49;entryY=-0.151;entryDx=0;entryDy=0;entryPerimeter=0;" parent="1" target="LJ63Zfr7MwNGXrE0fIQg-43" edge="1">
          <mxGeometry width="50" height="50" relative="1" as="geometry">
            <mxPoint x="1435" y="1278.75" as="sourcePoint" />
            <mxPoint x="1635" y="1128.75" as="targetPoint" />
          </mxGeometry>
        </mxCell>
        <mxCell id="LJ63Zfr7MwNGXrE0fIQg-41" value="" style="endArrow=none;html=1;rounded=0;entryX=0.51;entryY=-0.154;entryDx=0;entryDy=0;entryPerimeter=0;" parent="1" target="LJ63Zfr7MwNGXrE0fIQg-44" edge="1">
          <mxGeometry width="50" height="50" relative="1" as="geometry">
            <mxPoint x="1435" y="1278.75" as="sourcePoint" />
            <mxPoint x="1635" y="1128.75" as="targetPoint" />
          </mxGeometry>
        </mxCell>
        <mxCell id="LJ63Zfr7MwNGXrE0fIQg-42" value="" style="endArrow=none;html=1;rounded=0;entryX=0.5;entryY=0;entryDx=0;entryDy=0;" parent="1" target="LJ63Zfr7MwNGXrE0fIQg-35" edge="1">
          <mxGeometry width="50" height="50" relative="1" as="geometry">
            <mxPoint x="1435" y="1278.75" as="sourcePoint" />
            <mxPoint x="1635" y="1128.75" as="targetPoint" />
          </mxGeometry>
        </mxCell>
        <mxCell id="LJ63Zfr7MwNGXrE0fIQg-43" value="return_date" style="text;html=1;align=center;verticalAlign=middle;whiteSpace=wrap;rounded=0;fontSize=20;" parent="1" vertex="1">
          <mxGeometry x="1180" y="1317.5" width="160" height="45" as="geometry" />
        </mxCell>
        <mxCell id="LJ63Zfr7MwNGXrE0fIQg-44" value="Due_date" style="text;html=1;align=center;verticalAlign=middle;whiteSpace=wrap;rounded=0;fontSize=20;" parent="1" vertex="1">
          <mxGeometry x="1265" y="1425" width="160" height="45" as="geometry" />
        </mxCell>
        <mxCell id="LJ63Zfr7MwNGXrE0fIQg-45" value="borrow_date" style="text;html=1;align=center;verticalAlign=middle;whiteSpace=wrap;rounded=0;fontSize=20;" parent="1" vertex="1">
          <mxGeometry x="1445" y="1425" width="160" height="45" as="geometry" />
        </mxCell>
        <mxCell id="LJ63Zfr7MwNGXrE0fIQg-46" value="borrow_id" style="text;html=1;align=center;verticalAlign=middle;whiteSpace=wrap;rounded=0;fontSize=20;" parent="1" vertex="1">
          <mxGeometry x="1530" y="1331.25" width="160" height="45" as="geometry" />
        </mxCell>
        <mxCell id="LJ63Zfr7MwNGXrE0fIQg-50" value="" style="rounded=0;whiteSpace=wrap;html=1;" parent="1" vertex="1">
          <mxGeometry x="830" y="1380" width="160" height="60" as="geometry" />
        </mxCell>
        <mxCell id="LJ63Zfr7MwNGXrE0fIQg-55" value="" style="ellipse;whiteSpace=wrap;html=1;" parent="1" vertex="1">
          <mxGeometry x="740" y="1590" width="160" height="60" as="geometry" />
        </mxCell>
        <mxCell id="LJ63Zfr7MwNGXrE0fIQg-57" value="" style="ellipse;whiteSpace=wrap;html=1;" parent="1" vertex="1">
          <mxGeometry x="920" y="1590" width="160" height="60" as="geometry" />
        </mxCell>
        <mxCell id="LJ63Zfr7MwNGXrE0fIQg-58" value="" style="ellipse;whiteSpace=wrap;html=1;" parent="1" vertex="1">
          <mxGeometry x="1010" y="1510" width="160" height="60" as="geometry" />
        </mxCell>
        <mxCell id="LJ63Zfr7MwNGXrE0fIQg-59" value="" style="ellipse;whiteSpace=wrap;html=1;" parent="1" vertex="1">
          <mxGeometry x="640" y="1510" width="160" height="60" as="geometry" />
        </mxCell>
        <mxCell id="LJ63Zfr7MwNGXrE0fIQg-61" value="" style="endArrow=none;html=1;rounded=0;entryX=0.5;entryY=1;entryDx=0;entryDy=0;exitX=0.5;exitY=0;exitDx=0;exitDy=0;" parent="1" source="LJ63Zfr7MwNGXrE0fIQg-55" target="LJ63Zfr7MwNGXrE0fIQg-50" edge="1">
          <mxGeometry width="50" height="50" relative="1" as="geometry">
            <mxPoint x="1350" y="1310" as="sourcePoint" />
            <mxPoint x="1030" y="1450" as="targetPoint" />
          </mxGeometry>
        </mxCell>
        <mxCell id="LJ63Zfr7MwNGXrE0fIQg-62" value="" style="endArrow=none;html=1;rounded=0;entryX=0.5;entryY=1;entryDx=0;entryDy=0;exitX=0.5;exitY=0;exitDx=0;exitDy=0;" parent="1" source="LJ63Zfr7MwNGXrE0fIQg-57" target="LJ63Zfr7MwNGXrE0fIQg-50" edge="1">
          <mxGeometry width="50" height="50" relative="1" as="geometry">
            <mxPoint x="1350" y="1310" as="sourcePoint" />
            <mxPoint x="1400" y="1260" as="targetPoint" />
          </mxGeometry>
        </mxCell>
        <mxCell id="LJ63Zfr7MwNGXrE0fIQg-63" value="" style="endArrow=none;html=1;rounded=0;exitX=0.5;exitY=1;exitDx=0;exitDy=0;entryX=0.5;entryY=0;entryDx=0;entryDy=0;" parent="1" source="LJ63Zfr7MwNGXrE0fIQg-50" target="LJ63Zfr7MwNGXrE0fIQg-59" edge="1">
          <mxGeometry width="50" height="50" relative="1" as="geometry">
            <mxPoint x="1350" y="1310" as="sourcePoint" />
            <mxPoint x="1400" y="1260" as="targetPoint" />
          </mxGeometry>
        </mxCell>
        <mxCell id="LJ63Zfr7MwNGXrE0fIQg-64" value="" style="endArrow=none;html=1;rounded=0;exitX=0.5;exitY=1;exitDx=0;exitDy=0;entryX=0.5;entryY=0;entryDx=0;entryDy=0;" parent="1" source="LJ63Zfr7MwNGXrE0fIQg-50" target="LJ63Zfr7MwNGXrE0fIQg-58" edge="1">
          <mxGeometry width="50" height="50" relative="1" as="geometry">
            <mxPoint x="1350" y="1310" as="sourcePoint" />
            <mxPoint x="1400" y="1260" as="targetPoint" />
          </mxGeometry>
        </mxCell>
        <mxCell id="LJ63Zfr7MwNGXrE0fIQg-65" value="" style="endArrow=none;html=1;rounded=0;entryX=0.5;entryY=1;entryDx=0;entryDy=0;exitX=0.5;exitY=0;exitDx=0;exitDy=0;" parent="1" source="LJ63Zfr7MwNGXrE0fIQg-50" target="LJ63Zfr7MwNGXrE0fIQg-27" edge="1">
          <mxGeometry width="50" height="50" relative="1" as="geometry">
            <mxPoint x="1350" y="1300" as="sourcePoint" />
            <mxPoint x="1400" y="1250" as="targetPoint" />
          </mxGeometry>
        </mxCell>
        <mxCell id="LJ63Zfr7MwNGXrE0fIQg-66" value="" style="rhombus;whiteSpace=wrap;html=1;" parent="1" vertex="1">
          <mxGeometry x="1335" y="1030" width="200" height="90" as="geometry" />
        </mxCell>
        <mxCell id="LJ63Zfr7MwNGXrE0fIQg-68" value="member" style="text;html=1;align=center;verticalAlign=middle;whiteSpace=wrap;rounded=0;fontSize=20;" parent="1" vertex="1">
          <mxGeometry x="830" y="1387.5" width="160" height="45" as="geometry" />
        </mxCell>
        <mxCell id="LJ63Zfr7MwNGXrE0fIQg-69" value="member_id" style="text;html=1;align=center;verticalAlign=middle;whiteSpace=wrap;rounded=0;fontSize=20;" parent="1" vertex="1">
          <mxGeometry x="640" y="1517.5" width="160" height="45" as="geometry" />
        </mxCell>
        <mxCell id="LJ63Zfr7MwNGXrE0fIQg-70" value="member_id" style="text;html=1;align=center;verticalAlign=middle;whiteSpace=wrap;rounded=0;fontSize=20;" parent="1" vertex="1">
          <mxGeometry x="740" y="1597.5" width="160" height="45" as="geometry" />
        </mxCell>
        <mxCell id="LJ63Zfr7MwNGXrE0fIQg-72" value="contact_info" style="text;html=1;align=center;verticalAlign=middle;whiteSpace=wrap;rounded=0;fontSize=20;" parent="1" vertex="1">
          <mxGeometry x="920" y="1597.5" width="160" height="45" as="geometry" />
        </mxCell>
        <mxCell id="LJ63Zfr7MwNGXrE0fIQg-73" value="join_date" style="text;html=1;align=center;verticalAlign=middle;whiteSpace=wrap;rounded=0;fontSize=20;" parent="1" vertex="1">
          <mxGeometry x="1010" y="1517.5" width="160" height="45" as="geometry" />
        </mxCell>
        <mxCell id="LJ63Zfr7MwNGXrE0fIQg-74" value="issued_by" style="text;html=1;align=center;verticalAlign=middle;whiteSpace=wrap;rounded=0;fontSize=20;" parent="1" vertex="1">
          <mxGeometry x="1355" y="1052.5" width="160" height="45" as="geometry" />
        </mxCell>
        <mxCell id="LJ63Zfr7MwNGXrE0fIQg-75" value="" style="endArrow=none;html=1;rounded=0;entryX=0.5;entryY=1;entryDx=0;entryDy=0;" parent="1" target="LJ63Zfr7MwNGXrE0fIQg-66" edge="1">
          <mxGeometry width="50" height="50" relative="1" as="geometry">
            <mxPoint x="1435" y="1220" as="sourcePoint" />
            <mxPoint x="1390" y="465" as="targetPoint" />
          </mxGeometry>
        </mxCell>
        <mxCell id="LJ63Zfr7MwNGXrE0fIQg-76" value="" style="rounded=0;whiteSpace=wrap;html=1;" parent="1" vertex="1">
          <mxGeometry x="1355" y="872.5" width="160" height="60" as="geometry" />
        </mxCell>
        <mxCell id="LJ63Zfr7MwNGXrE0fIQg-78" value="staff" style="text;html=1;align=center;verticalAlign=middle;whiteSpace=wrap;rounded=0;fontSize=20;" parent="1" vertex="1">
          <mxGeometry x="1355" y="880" width="160" height="45" as="geometry" />
        </mxCell>
        <mxCell id="LJ63Zfr7MwNGXrE0fIQg-79" value="" style="ellipse;whiteSpace=wrap;html=1;" parent="1" vertex="1">
          <mxGeometry x="1355" y="650" width="160" height="60" as="geometry" />
        </mxCell>
        <mxCell id="LJ63Zfr7MwNGXrE0fIQg-80" value="" style="ellipse;whiteSpace=wrap;html=1;" parent="1" vertex="1">
          <mxGeometry x="1175" y="650" width="160" height="60" as="geometry" />
        </mxCell>
        <mxCell id="LJ63Zfr7MwNGXrE0fIQg-83" value="" style="ellipse;whiteSpace=wrap;html=1;" parent="1" vertex="1">
          <mxGeometry x="1535" y="650" width="160" height="60" as="geometry" />
        </mxCell>
        <mxCell id="LJ63Zfr7MwNGXrE0fIQg-84" value="" style="endArrow=none;html=1;rounded=0;exitX=0.5;exitY=1;exitDx=0;exitDy=0;entryX=0.5;entryY=0;entryDx=0;entryDy=0;" parent="1" source="LJ63Zfr7MwNGXrE0fIQg-79" target="LJ63Zfr7MwNGXrE0fIQg-76" edge="1">
          <mxGeometry width="50" height="50" relative="1" as="geometry">
            <mxPoint x="1835" y="641.25" as="sourcePoint" />
            <mxPoint x="1450" y="850" as="targetPoint" />
          </mxGeometry>
        </mxCell>
        <mxCell id="LJ63Zfr7MwNGXrE0fIQg-85" value="" style="endArrow=none;html=1;rounded=0;entryX=0.5;entryY=1;entryDx=0;entryDy=0;exitX=0.5;exitY=0;exitDx=0;exitDy=0;" parent="1" source="LJ63Zfr7MwNGXrE0fIQg-76" target="LJ63Zfr7MwNGXrE0fIQg-88" edge="1">
          <mxGeometry width="50" height="50" relative="1" as="geometry">
            <mxPoint x="1815" y="551.25" as="sourcePoint" />
            <mxPoint x="1655" y="731.25" as="targetPoint" />
          </mxGeometry>
        </mxCell>
        <mxCell id="LJ63Zfr7MwNGXrE0fIQg-86" value="" style="endArrow=none;html=1;rounded=0;exitX=0.5;exitY=1;exitDx=0;exitDy=0;entryX=0.5;entryY=0;entryDx=0;entryDy=0;" parent="1" source="LJ63Zfr7MwNGXrE0fIQg-87" target="LJ63Zfr7MwNGXrE0fIQg-76" edge="1">
          <mxGeometry width="50" height="50" relative="1" as="geometry">
            <mxPoint x="1280" y="850" as="sourcePoint" />
            <mxPoint x="1460" y="840" as="targetPoint" />
          </mxGeometry>
        </mxCell>
        <mxCell id="LJ63Zfr7MwNGXrE0fIQg-87" value="" style="ellipse;whiteSpace=wrap;html=1;" parent="1" vertex="1">
          <mxGeometry x="1120" y="757.5" width="160" height="60" as="geometry" />
        </mxCell>
        <mxCell id="LJ63Zfr7MwNGXrE0fIQg-88" value="" style="ellipse;whiteSpace=wrap;html=1;" parent="1" vertex="1">
          <mxGeometry x="1605" y="757.5" width="160" height="60" as="geometry" />
        </mxCell>
        <mxCell id="LJ63Zfr7MwNGXrE0fIQg-90" value="" style="endArrow=none;html=1;rounded=0;exitX=0.5;exitY=1;exitDx=0;exitDy=0;entryX=0.5;entryY=0;entryDx=0;entryDy=0;" parent="1" source="LJ63Zfr7MwNGXrE0fIQg-83" target="LJ63Zfr7MwNGXrE0fIQg-76" edge="1">
          <mxGeometry width="50" height="50" relative="1" as="geometry">
            <mxPoint x="1935" y="531.25" as="sourcePoint" />
            <mxPoint x="1815" y="551.25" as="targetPoint" />
          </mxGeometry>
        </mxCell>
        <mxCell id="LJ63Zfr7MwNGXrE0fIQg-91" value="" style="endArrow=none;html=1;rounded=0;entryX=0.5;entryY=1;entryDx=0;entryDy=0;exitX=0.5;exitY=0;exitDx=0;exitDy=0;" parent="1" source="LJ63Zfr7MwNGXrE0fIQg-76" target="LJ63Zfr7MwNGXrE0fIQg-80" edge="1">
          <mxGeometry width="50" height="50" relative="1" as="geometry">
            <mxPoint x="1430" y="870" as="sourcePoint" />
            <mxPoint x="1235" y="730" as="targetPoint" />
          </mxGeometry>
        </mxCell>
        <mxCell id="LJ63Zfr7MwNGXrE0fIQg-92" value="staff_id" style="text;html=1;align=center;verticalAlign=middle;whiteSpace=wrap;rounded=0;fontSize=20;" parent="1" vertex="1">
          <mxGeometry x="1175" y="657.5" width="160" height="45" as="geometry" />
        </mxCell>
        <mxCell id="LJ63Zfr7MwNGXrE0fIQg-93" value="name" style="text;html=1;align=center;verticalAlign=middle;whiteSpace=wrap;rounded=0;fontSize=20;" parent="1" vertex="1">
          <mxGeometry x="1120" y="765" width="160" height="45" as="geometry" />
        </mxCell>
        <mxCell id="LJ63Zfr7MwNGXrE0fIQg-94" value="contact_info" style="text;html=1;align=center;verticalAlign=middle;whiteSpace=wrap;rounded=0;fontSize=20;" parent="1" vertex="1">
          <mxGeometry x="1355" y="657.5" width="160" height="45" as="geometry" />
        </mxCell>
        <mxCell id="LJ63Zfr7MwNGXrE0fIQg-95" value="hire_date" style="text;html=1;align=center;verticalAlign=middle;whiteSpace=wrap;rounded=0;fontSize=20;" parent="1" vertex="1">
          <mxGeometry x="1535" y="657.5" width="160" height="45" as="geometry" />
        </mxCell>
        <mxCell id="LJ63Zfr7MwNGXrE0fIQg-96" value="job_title" style="text;html=1;align=center;verticalAlign=middle;whiteSpace=wrap;rounded=0;fontSize=20;" parent="1" vertex="1">
          <mxGeometry x="1605" y="765" width="160" height="45" as="geometry" />
        </mxCell>
        <mxCell id="LJ63Zfr7MwNGXrE0fIQg-97" value="" style="rhombus;whiteSpace=wrap;html=1;" parent="1" vertex="1">
          <mxGeometry x="2005" y="1600" width="200" height="80" as="geometry" />
        </mxCell>
        <mxCell id="LJ63Zfr7MwNGXrE0fIQg-99" value="" style="rounded=0;whiteSpace=wrap;html=1;" parent="1" vertex="1">
          <mxGeometry x="2020" y="1765" width="170" height="60" as="geometry" />
        </mxCell>
        <mxCell id="LJ63Zfr7MwNGXrE0fIQg-100" value="" style="ellipse;whiteSpace=wrap;html=1;" parent="1" vertex="1">
          <mxGeometry x="2025" y="1925" width="160" height="60" as="geometry" />
        </mxCell>
        <mxCell id="LJ63Zfr7MwNGXrE0fIQg-101" value="" style="ellipse;whiteSpace=wrap;html=1;" parent="1" vertex="1">
          <mxGeometry x="1840" y="1925" width="160" height="60" as="geometry" />
        </mxCell>
        <mxCell id="LJ63Zfr7MwNGXrE0fIQg-102" value="" style="ellipse;whiteSpace=wrap;html=1;" parent="1" vertex="1">
          <mxGeometry x="2200" y="1925" width="160" height="60" as="geometry" />
        </mxCell>
        <mxCell id="LJ63Zfr7MwNGXrE0fIQg-103" value="belongs to" style="text;html=1;align=center;verticalAlign=middle;whiteSpace=wrap;rounded=0;fontSize=20;" parent="1" vertex="1">
          <mxGeometry x="2025" y="1617.5" width="160" height="45" as="geometry" />
        </mxCell>
        <mxCell id="LJ63Zfr7MwNGXrE0fIQg-104" value="catalog" style="text;html=1;align=center;verticalAlign=middle;whiteSpace=wrap;rounded=0;fontSize=20;" parent="1" vertex="1">
          <mxGeometry x="2025" y="1772.5" width="160" height="45" as="geometry" />
        </mxCell>
        <mxCell id="LJ63Zfr7MwNGXrE0fIQg-105" value="catalog_id" style="text;html=1;align=center;verticalAlign=middle;whiteSpace=wrap;rounded=0;fontSize=20;" parent="1" vertex="1">
          <mxGeometry x="1840" y="1932.5" width="160" height="45" as="geometry" />
        </mxCell>
        <mxCell id="LJ63Zfr7MwNGXrE0fIQg-108" value="location" style="text;html=1;align=center;verticalAlign=middle;whiteSpace=wrap;rounded=0;fontSize=20;" parent="1" vertex="1">
          <mxGeometry x="2200" y="1932.5" width="160" height="45" as="geometry" />
        </mxCell>
        <mxCell id="LJ63Zfr7MwNGXrE0fIQg-109" value="" style="endArrow=none;html=1;rounded=0;entryX=0.509;entryY=1.188;entryDx=0;entryDy=0;entryPerimeter=0;exitX=0.5;exitY=0;exitDx=0;exitDy=0;" parent="1" source="LJ63Zfr7MwNGXrE0fIQg-97" target="LJ63Zfr7MwNGXrE0fIQg-2" edge="1">
          <mxGeometry width="50" height="50" relative="1" as="geometry">
            <mxPoint x="1930" y="1530" as="sourcePoint" />
            <mxPoint x="1980" y="1480" as="targetPoint" />
          </mxGeometry>
        </mxCell>
        <mxCell id="LJ63Zfr7MwNGXrE0fIQg-111" value="" style="endArrow=none;html=1;rounded=0;entryX=0.5;entryY=1;entryDx=0;entryDy=0;exitX=0.5;exitY=0;exitDx=0;exitDy=0;" parent="1" source="LJ63Zfr7MwNGXrE0fIQg-99" target="LJ63Zfr7MwNGXrE0fIQg-97" edge="1">
          <mxGeometry width="50" height="50" relative="1" as="geometry">
            <mxPoint x="1990" y="1665" as="sourcePoint" />
            <mxPoint x="2040" y="1615" as="targetPoint" />
          </mxGeometry>
        </mxCell>
        <mxCell id="LJ63Zfr7MwNGXrE0fIQg-112" value="" style="endArrow=none;html=1;rounded=0;entryX=0.5;entryY=1;entryDx=0;entryDy=0;exitX=0.5;exitY=0;exitDx=0;exitDy=0;" parent="1" source="LJ63Zfr7MwNGXrE0fIQg-101" target="LJ63Zfr7MwNGXrE0fIQg-99" edge="1">
          <mxGeometry width="50" height="50" relative="1" as="geometry">
            <mxPoint x="1990" y="1895" as="sourcePoint" />
            <mxPoint x="2040" y="1845" as="targetPoint" />
          </mxGeometry>
        </mxCell>
        <mxCell id="LJ63Zfr7MwNGXrE0fIQg-113" value="" style="endArrow=none;html=1;rounded=0;entryX=0.5;entryY=1;entryDx=0;entryDy=0;exitX=0.5;exitY=0;exitDx=0;exitDy=0;" parent="1" source="LJ63Zfr7MwNGXrE0fIQg-100" target="LJ63Zfr7MwNGXrE0fIQg-99" edge="1">
          <mxGeometry width="50" height="50" relative="1" as="geometry">
            <mxPoint x="1990" y="1895" as="sourcePoint" />
            <mxPoint x="2040" y="1845" as="targetPoint" />
          </mxGeometry>
        </mxCell>
        <mxCell id="LJ63Zfr7MwNGXrE0fIQg-114" value="" style="endArrow=none;html=1;rounded=0;exitX=0.5;exitY=0;exitDx=0;exitDy=0;" parent="1" source="LJ63Zfr7MwNGXrE0fIQg-102" edge="1">
          <mxGeometry width="50" height="50" relative="1" as="geometry">
            <mxPoint x="2020" y="1895" as="sourcePoint" />
            <mxPoint x="2105" y="1825" as="targetPoint" />
          </mxGeometry>
        </mxCell>
        <mxCell id="LJ63Zfr7MwNGXrE0fIQg-115" value="name" style="text;html=1;align=center;verticalAlign=middle;whiteSpace=wrap;rounded=0;fontSize=20;" parent="1" vertex="1">
          <mxGeometry x="2025" y="1932.5" width="160" height="45" as="geometry" />
        </mxCell>
        <mxCell id="LJ63Zfr7MwNGXrE0fIQg-117" value="" style="rhombus;whiteSpace=wrap;html=1;" parent="1" vertex="1">
          <mxGeometry x="2005" y="1025" width="200" height="100" as="geometry" />
        </mxCell>
        <mxCell id="LJ63Zfr7MwNGXrE0fIQg-118" value="" style="rhombus;whiteSpace=wrap;html=1;" parent="1" vertex="1">
          <mxGeometry x="2370" y="1200" width="200" height="100" as="geometry" />
        </mxCell>
        <mxCell id="LJ63Zfr7MwNGXrE0fIQg-126" value="authorship" style="text;html=1;align=center;verticalAlign=middle;whiteSpace=wrap;rounded=0;fontSize=20;" parent="1" vertex="1">
          <mxGeometry x="2440" y="1235" width="60" height="30" as="geometry" />
        </mxCell>
        <mxCell id="LJ63Zfr7MwNGXrE0fIQg-141" value="" style="ellipse;whiteSpace=wrap;html=1;" parent="1" vertex="1">
          <mxGeometry x="2390" y="1400" width="160" height="60" as="geometry" />
        </mxCell>
        <mxCell id="LJ63Zfr7MwNGXrE0fIQg-142" value="authorship_id" style="text;html=1;align=center;verticalAlign=middle;whiteSpace=wrap;rounded=0;fontSize=20;" parent="1" vertex="1">
          <mxGeometry x="2440" y="1415" width="60" height="30" as="geometry" />
        </mxCell>
        <mxCell id="LJ63Zfr7MwNGXrE0fIQg-144" value="" style="ellipse;whiteSpace=wrap;html=1;" parent="1" vertex="1">
          <mxGeometry x="2025" y="730" width="160" height="60" as="geometry" />
        </mxCell>
        <mxCell id="LJ63Zfr7MwNGXrE0fIQg-158" value="" style="rounded=0;whiteSpace=wrap;html=1;" parent="1" vertex="1">
          <mxGeometry x="2015" y="872.5" width="180" height="60" as="geometry" />
        </mxCell>
        <mxCell id="LJ63Zfr7MwNGXrE0fIQg-160" value="" style="ellipse;whiteSpace=wrap;html=1;" parent="1" vertex="1">
          <mxGeometry x="2195" y="730" width="160" height="60" as="geometry" />
        </mxCell>
        <mxCell id="LJ63Zfr7MwNGXrE0fIQg-161" value="" style="ellipse;whiteSpace=wrap;html=1;" parent="1" vertex="1">
          <mxGeometry x="1855" y="730" width="160" height="60" as="geometry" />
        </mxCell>
        <mxCell id="LJ63Zfr7MwNGXrE0fIQg-162" value="" style="endArrow=none;html=1;rounded=0;exitX=0.485;exitY=0.985;exitDx=0;exitDy=0;exitPerimeter=0;entryX=0.484;entryY=-0.012;entryDx=0;entryDy=0;entryPerimeter=0;" parent="1" source="-ugos-jLK1pMNfCuvMZr-83" edge="1" target="-ugos-jLK1pMNfCuvMZr-1">
          <mxGeometry width="50" height="50" relative="1" as="geometry">
            <mxPoint x="2100" y="1150" as="sourcePoint" />
            <mxPoint x="2100" y="1210" as="targetPoint" />
          </mxGeometry>
        </mxCell>
        <mxCell id="LJ63Zfr7MwNGXrE0fIQg-163" value="" style="endArrow=none;html=1;rounded=0;exitX=0.5;exitY=1;exitDx=0;exitDy=0;entryX=0.5;entryY=0;entryDx=0;entryDy=0;" parent="1" source="LJ63Zfr7MwNGXrE0fIQg-144" target="LJ63Zfr7MwNGXrE0fIQg-158" edge="1">
          <mxGeometry width="50" height="50" relative="1" as="geometry">
            <mxPoint x="2300" y="857.5" as="sourcePoint" />
            <mxPoint x="2190" y="907.5" as="targetPoint" />
          </mxGeometry>
        </mxCell>
        <mxCell id="LJ63Zfr7MwNGXrE0fIQg-164" value="" style="endArrow=none;html=1;rounded=0;exitX=0.5;exitY=1;exitDx=0;exitDy=0;entryX=0.5;entryY=0;entryDx=0;entryDy=0;" parent="1" source="LJ63Zfr7MwNGXrE0fIQg-160" target="LJ63Zfr7MwNGXrE0fIQg-158" edge="1">
          <mxGeometry width="50" height="50" relative="1" as="geometry">
            <mxPoint x="2010" y="1062.5" as="sourcePoint" />
            <mxPoint x="2170" y="1002.5" as="targetPoint" />
          </mxGeometry>
        </mxCell>
        <mxCell id="LJ63Zfr7MwNGXrE0fIQg-165" value="" style="endArrow=none;html=1;rounded=0;entryX=0.5;entryY=0;entryDx=0;entryDy=0;exitX=0.5;exitY=1;exitDx=0;exitDy=0;" parent="1" source="LJ63Zfr7MwNGXrE0fIQg-161" target="LJ63Zfr7MwNGXrE0fIQg-158" edge="1">
          <mxGeometry width="50" height="50" relative="1" as="geometry">
            <mxPoint x="1930" y="830" as="sourcePoint" />
            <mxPoint x="2150" y="943.75" as="targetPoint" />
          </mxGeometry>
        </mxCell>
        <mxCell id="LJ63Zfr7MwNGXrE0fIQg-167" value="associated with" style="text;html=1;align=center;verticalAlign=middle;whiteSpace=wrap;rounded=0;fontSize=20;" parent="1" vertex="1">
          <mxGeometry x="2075" y="1060" width="60" height="30" as="geometry" />
        </mxCell>
        <mxCell id="LJ63Zfr7MwNGXrE0fIQg-168" value="genre" style="text;html=1;align=center;verticalAlign=middle;whiteSpace=wrap;rounded=0;fontSize=20;" parent="1" vertex="1">
          <mxGeometry x="2075" y="887.5" width="60" height="30" as="geometry" />
        </mxCell>
        <mxCell id="LJ63Zfr7MwNGXrE0fIQg-169" value="genre" style="text;html=1;align=center;verticalAlign=middle;whiteSpace=wrap;rounded=0;fontSize=20;" parent="1" vertex="1">
          <mxGeometry x="2075" y="745" width="60" height="30" as="geometry" />
        </mxCell>
        <mxCell id="LJ63Zfr7MwNGXrE0fIQg-170" value="name" style="text;html=1;align=center;verticalAlign=middle;whiteSpace=wrap;rounded=0;fontSize=20;" parent="1" vertex="1">
          <mxGeometry x="2245" y="745" width="60" height="30" as="geometry" />
        </mxCell>
        <mxCell id="LJ63Zfr7MwNGXrE0fIQg-177" value="description" style="text;html=1;align=center;verticalAlign=middle;whiteSpace=wrap;rounded=0;fontSize=20;" parent="1" vertex="1">
          <mxGeometry x="1905" y="745" width="60" height="30" as="geometry" />
        </mxCell>
        <mxCell id="LJ63Zfr7MwNGXrE0fIQg-179" value="" style="rounded=0;whiteSpace=wrap;html=1;" parent="1" vertex="1">
          <mxGeometry x="2700" y="1220" width="180" height="60" as="geometry" />
        </mxCell>
        <mxCell id="LJ63Zfr7MwNGXrE0fIQg-180" value="" style="endArrow=none;html=1;rounded=0;exitX=0.982;exitY=0.482;exitDx=0;exitDy=0;exitPerimeter=0;entryX=0;entryY=0.468;entryDx=0;entryDy=0;entryPerimeter=0;" parent="1" source="-ugos-jLK1pMNfCuvMZr-84" target="-ugos-jLK1pMNfCuvMZr-101" edge="1">
          <mxGeometry width="50" height="50" relative="1" as="geometry">
            <mxPoint x="2580" y="1240" as="sourcePoint" />
            <mxPoint x="2690" y="1250" as="targetPoint" />
          </mxGeometry>
        </mxCell>
        <mxCell id="LJ63Zfr7MwNGXrE0fIQg-182" value="" style="ellipse;whiteSpace=wrap;html=1;" parent="1" vertex="1">
          <mxGeometry x="2980" y="1266.25" width="160" height="60" as="geometry" />
        </mxCell>
        <mxCell id="LJ63Zfr7MwNGXrE0fIQg-183" value="" style="ellipse;whiteSpace=wrap;html=1;" parent="1" vertex="1">
          <mxGeometry x="2980" y="1078.75" width="160" height="60" as="geometry" />
        </mxCell>
        <mxCell id="LJ63Zfr7MwNGXrE0fIQg-186" value="" style="ellipse;whiteSpace=wrap;html=1;" parent="1" vertex="1">
          <mxGeometry x="2980" y="1361.25" width="160" height="60" as="geometry" />
        </mxCell>
        <mxCell id="LJ63Zfr7MwNGXrE0fIQg-190" value="author" style="text;html=1;align=center;verticalAlign=middle;whiteSpace=wrap;rounded=0;fontSize=20;" parent="1" vertex="1">
          <mxGeometry x="2760" y="1235" width="60" height="30" as="geometry" />
        </mxCell>
        <mxCell id="LJ63Zfr7MwNGXrE0fIQg-191" value="author_id" style="text;html=1;align=center;verticalAlign=middle;whiteSpace=wrap;rounded=0;fontSize=20;" parent="1" vertex="1">
          <mxGeometry x="3030" y="1376.25" width="60" height="30" as="geometry" />
        </mxCell>
        <mxCell id="LJ63Zfr7MwNGXrE0fIQg-192" value="name" style="text;html=1;align=center;verticalAlign=middle;whiteSpace=wrap;rounded=0;fontSize=20;" parent="1" vertex="1">
          <mxGeometry x="3030" y="1281.25" width="60" height="30" as="geometry" />
        </mxCell>
        <mxCell id="LJ63Zfr7MwNGXrE0fIQg-196" value="" style="ellipse;whiteSpace=wrap;html=1;" parent="1" vertex="1">
          <mxGeometry x="2980" y="1173.75" width="160" height="60" as="geometry" />
        </mxCell>
        <mxCell id="LJ63Zfr7MwNGXrE0fIQg-198" value="" style="endArrow=none;html=1;rounded=0;exitX=0.5;exitY=0;exitDx=0;exitDy=0;entryX=0.5;entryY=1;entryDx=0;entryDy=0;" parent="1" source="LJ63Zfr7MwNGXrE0fIQg-141" target="LJ63Zfr7MwNGXrE0fIQg-118" edge="1">
          <mxGeometry width="50" height="50" relative="1" as="geometry">
            <mxPoint x="2590" y="1180" as="sourcePoint" />
            <mxPoint x="2640" y="1130" as="targetPoint" />
          </mxGeometry>
        </mxCell>
        <mxCell id="LJ63Zfr7MwNGXrE0fIQg-200" value="birth_date" style="text;html=1;align=center;verticalAlign=middle;whiteSpace=wrap;rounded=0;fontSize=20;" parent="1" vertex="1">
          <mxGeometry x="3030" y="1093.75" width="60" height="30" as="geometry" />
        </mxCell>
        <mxCell id="LJ63Zfr7MwNGXrE0fIQg-201" value="nationality" style="text;html=1;align=center;verticalAlign=middle;whiteSpace=wrap;rounded=0;fontSize=20;" parent="1" vertex="1">
          <mxGeometry x="3030" y="1188.75" width="60" height="30" as="geometry" />
        </mxCell>
        <mxCell id="LJ63Zfr7MwNGXrE0fIQg-202" value="" style="endArrow=none;html=1;rounded=0;entryX=0;entryY=0.5;entryDx=0;entryDy=0;exitX=1;exitY=0.5;exitDx=0;exitDy=0;" parent="1" source="LJ63Zfr7MwNGXrE0fIQg-179" target="LJ63Zfr7MwNGXrE0fIQg-186" edge="1">
          <mxGeometry width="50" height="50" relative="1" as="geometry">
            <mxPoint x="2950" y="1220" as="sourcePoint" />
            <mxPoint x="3000" y="1170" as="targetPoint" />
          </mxGeometry>
        </mxCell>
        <mxCell id="LJ63Zfr7MwNGXrE0fIQg-203" value="" style="endArrow=none;html=1;rounded=0;entryX=0;entryY=0.5;entryDx=0;entryDy=0;exitX=1;exitY=0.5;exitDx=0;exitDy=0;" parent="1" source="LJ63Zfr7MwNGXrE0fIQg-179" target="LJ63Zfr7MwNGXrE0fIQg-182" edge="1">
          <mxGeometry width="50" height="50" relative="1" as="geometry">
            <mxPoint x="2850" y="1230" as="sourcePoint" />
            <mxPoint x="2730" y="1120" as="targetPoint" />
          </mxGeometry>
        </mxCell>
        <mxCell id="LJ63Zfr7MwNGXrE0fIQg-204" value="" style="endArrow=none;html=1;rounded=0;entryX=0;entryY=0.5;entryDx=0;entryDy=0;" parent="1" target="LJ63Zfr7MwNGXrE0fIQg-183" edge="1">
          <mxGeometry width="50" height="50" relative="1" as="geometry">
            <mxPoint x="2880" y="1250" as="sourcePoint" />
            <mxPoint x="2820" y="1080" as="targetPoint" />
          </mxGeometry>
        </mxCell>
        <mxCell id="LJ63Zfr7MwNGXrE0fIQg-205" value="" style="endArrow=none;html=1;rounded=0;entryX=0;entryY=0.5;entryDx=0;entryDy=0;exitX=1;exitY=0.5;exitDx=0;exitDy=0;" parent="1" source="LJ63Zfr7MwNGXrE0fIQg-179" target="LJ63Zfr7MwNGXrE0fIQg-196" edge="1">
          <mxGeometry width="50" height="50" relative="1" as="geometry">
            <mxPoint x="2900" y="1250" as="sourcePoint" />
            <mxPoint x="2980" y="1090" as="targetPoint" />
          </mxGeometry>
        </mxCell>
        <mxCell id="6B5pETCUOEa6k7W7tEBf-2" value="" style="endArrow=none;html=1;rounded=0;exitX=1.003;exitY=0.46;exitDx=0;exitDy=0;exitPerimeter=0;entryX=0.018;entryY=0.48;entryDx=0;entryDy=0;entryPerimeter=0;" parent="1" target="-ugos-jLK1pMNfCuvMZr-84" edge="1" source="-ugos-jLK1pMNfCuvMZr-1">
          <mxGeometry width="50" height="50" relative="1" as="geometry">
            <mxPoint x="2200" y="1250" as="sourcePoint" />
            <mxPoint x="2360" y="1240" as="targetPoint" />
          </mxGeometry>
        </mxCell>
        <mxCell id="6B5pETCUOEa6k7W7tEBf-4" value="" style="endArrow=none;html=1;rounded=0;exitX=0.5;exitY=1;exitDx=0;exitDy=0;entryX=0.5;entryY=0;entryDx=0;entryDy=0;" parent="1" source="LJ63Zfr7MwNGXrE0fIQg-158" target="LJ63Zfr7MwNGXrE0fIQg-117" edge="1">
          <mxGeometry width="50" height="50" relative="1" as="geometry">
            <mxPoint x="2098.89" y="930" as="sourcePoint" />
            <mxPoint x="2098.89" y="1025" as="targetPoint" />
          </mxGeometry>
        </mxCell>
        <mxCell id="6B5pETCUOEa6k7W7tEBf-8" value="" style="endArrow=none;html=1;rounded=0;exitX=0.5;exitY=0;exitDx=0;exitDy=0;entryX=0.5;entryY=1;entryDx=0;entryDy=0;" parent="1" source="LJ63Zfr7MwNGXrE0fIQg-66" target="LJ63Zfr7MwNGXrE0fIQg-76" edge="1">
          <mxGeometry width="50" height="50" relative="1" as="geometry">
            <mxPoint x="1450" y="1010" as="sourcePoint" />
            <mxPoint x="1450" y="960" as="targetPoint" />
          </mxGeometry>
        </mxCell>
        <mxCell id="-ugos-jLK1pMNfCuvMZr-1" value="" style="rounded=0;whiteSpace=wrap;html=1;" vertex="1" parent="1">
          <mxGeometry x="2020" y="1220" width="170" height="60" as="geometry" />
        </mxCell>
        <mxCell id="-ugos-jLK1pMNfCuvMZr-2" value="Material" style="text;html=1;align=center;verticalAlign=middle;whiteSpace=wrap;rounded=0;fontSize=20;" vertex="1" parent="1">
          <mxGeometry x="2025" y="1227.5" width="160" height="45" as="geometry" />
        </mxCell>
        <mxCell id="-ugos-jLK1pMNfCuvMZr-3" value="" style="ellipse;whiteSpace=wrap;html=1;" vertex="1" parent="1">
          <mxGeometry x="1910" y="1400" width="160" height="60" as="geometry" />
        </mxCell>
        <mxCell id="-ugos-jLK1pMNfCuvMZr-4" value="" style="ellipse;whiteSpace=wrap;html=1;" vertex="1" parent="1">
          <mxGeometry x="2130" y="1400" width="160" height="60" as="geometry" />
        </mxCell>
        <mxCell id="-ugos-jLK1pMNfCuvMZr-5" value="" style="ellipse;whiteSpace=wrap;html=1;" vertex="1" parent="1">
          <mxGeometry x="1730" y="1400" width="160" height="60" as="geometry" />
        </mxCell>
        <mxCell id="-ugos-jLK1pMNfCuvMZr-6" value="Publication" style="text;html=1;align=center;verticalAlign=middle;whiteSpace=wrap;rounded=0;fontSize=20;" vertex="1" parent="1">
          <mxGeometry x="1960" y="1415" width="60" height="30" as="geometry" />
        </mxCell>
        <mxCell id="-ugos-jLK1pMNfCuvMZr-7" value="Title" style="text;html=1;align=center;verticalAlign=middle;whiteSpace=wrap;rounded=0;fontSize=20;" vertex="1" parent="1">
          <mxGeometry x="2180" y="1415" width="60" height="30" as="geometry" />
        </mxCell>
        <mxCell id="-ugos-jLK1pMNfCuvMZr-8" value="Material_ID" style="text;html=1;align=center;verticalAlign=middle;whiteSpace=wrap;rounded=0;fontSize=20;" vertex="1" parent="1">
          <mxGeometry x="1780" y="1415" width="60" height="30" as="geometry" />
        </mxCell>
        <mxCell id="-ugos-jLK1pMNfCuvMZr-9" value="" style="endArrow=none;html=1;rounded=0;exitX=0.5;exitY=0;exitDx=0;exitDy=0;" edge="1" parent="1" source="-ugos-jLK1pMNfCuvMZr-3">
          <mxGeometry width="50" height="50" relative="1" as="geometry">
            <mxPoint x="2030" y="1280" as="sourcePoint" />
            <mxPoint x="2105" y="1280" as="targetPoint" />
          </mxGeometry>
        </mxCell>
        <mxCell id="-ugos-jLK1pMNfCuvMZr-11" value="" style="endArrow=none;html=1;rounded=0;entryX=0.5;entryY=0;entryDx=0;entryDy=0;" edge="1" parent="1" target="-ugos-jLK1pMNfCuvMZr-5">
          <mxGeometry width="50" height="50" relative="1" as="geometry">
            <mxPoint x="2105" y="1280" as="sourcePoint" />
            <mxPoint x="1745.3623896059783" y="1390" as="targetPoint" />
          </mxGeometry>
        </mxCell>
        <mxCell id="-ugos-jLK1pMNfCuvMZr-12" value="" style="rhombus;whiteSpace=wrap;html=1;" vertex="1" parent="1">
          <mxGeometry x="1700" y="1200" width="200" height="100" as="geometry" />
        </mxCell>
        <mxCell id="-ugos-jLK1pMNfCuvMZr-13" value="Borrowed out" style="text;html=1;align=center;verticalAlign=middle;whiteSpace=wrap;rounded=0;fontSize=20;" vertex="1" parent="1">
          <mxGeometry x="1770" y="1235" width="60" height="30" as="geometry" />
        </mxCell>
        <mxCell id="-ugos-jLK1pMNfCuvMZr-14" value="" style="rounded=0;whiteSpace=wrap;html=1;" vertex="1" parent="1">
          <mxGeometry x="1355" y="1218.75" width="160" height="60" as="geometry" />
        </mxCell>
        <mxCell id="-ugos-jLK1pMNfCuvMZr-15" value="Borrow" style="text;html=1;align=center;verticalAlign=middle;whiteSpace=wrap;rounded=0;fontSize=20;" vertex="1" parent="1">
          <mxGeometry x="1355" y="1226.25" width="160" height="45" as="geometry" />
        </mxCell>
        <mxCell id="-ugos-jLK1pMNfCuvMZr-16" value="" style="endArrow=none;html=1;rounded=0;exitX=1;exitY=0.5;exitDx=0;exitDy=0;entryX=0;entryY=0.5;entryDx=0;entryDy=0;" edge="1" parent="1" source="-ugos-jLK1pMNfCuvMZr-15" target="-ugos-jLK1pMNfCuvMZr-12">
          <mxGeometry width="50" height="50" relative="1" as="geometry">
            <mxPoint x="1605" y="1338.75" as="sourcePoint" />
            <mxPoint x="1635" y="1248.75" as="targetPoint" />
          </mxGeometry>
        </mxCell>
        <mxCell id="-ugos-jLK1pMNfCuvMZr-17" value="" style="endArrow=none;html=1;rounded=0;exitX=1;exitY=0.5;exitDx=0;exitDy=0;entryX=0;entryY=0.5;entryDx=0;entryDy=0;" edge="1" parent="1">
          <mxGeometry width="50" height="50" relative="1" as="geometry">
            <mxPoint x="1900" y="1249.41" as="sourcePoint" />
            <mxPoint x="2020" y="1249.41" as="targetPoint" />
          </mxGeometry>
        </mxCell>
        <mxCell id="-ugos-jLK1pMNfCuvMZr-18" value="" style="rhombus;whiteSpace=wrap;html=1;" vertex="1" parent="1">
          <mxGeometry x="810" y="1200" width="200" height="100" as="geometry" />
        </mxCell>
        <mxCell id="-ugos-jLK1pMNfCuvMZr-19" value="Lent to" style="text;html=1;align=center;verticalAlign=middle;whiteSpace=wrap;rounded=0;fontSize=20;" vertex="1" parent="1">
          <mxGeometry x="830" y="1227.5" width="160" height="45" as="geometry" />
        </mxCell>
        <mxCell id="-ugos-jLK1pMNfCuvMZr-20" value="" style="endArrow=none;html=1;rounded=0;exitX=1;exitY=0.5;exitDx=0;exitDy=0;entryX=0;entryY=0.5;entryDx=0;entryDy=0;" edge="1" parent="1" source="-ugos-jLK1pMNfCuvMZr-18" target="-ugos-jLK1pMNfCuvMZr-15">
          <mxGeometry width="50" height="50" relative="1" as="geometry">
            <mxPoint x="1260" y="1278.75" as="sourcePoint" />
            <mxPoint x="1365" y="1290" as="targetPoint" />
          </mxGeometry>
        </mxCell>
        <mxCell id="-ugos-jLK1pMNfCuvMZr-21" value="" style="ellipse;whiteSpace=wrap;html=1;" vertex="1" parent="1">
          <mxGeometry x="1180" y="1310" width="160" height="60" as="geometry" />
        </mxCell>
        <mxCell id="-ugos-jLK1pMNfCuvMZr-22" value="" style="ellipse;whiteSpace=wrap;html=1;" vertex="1" parent="1">
          <mxGeometry x="1265" y="1417.5" width="160" height="60" as="geometry" />
        </mxCell>
        <mxCell id="-ugos-jLK1pMNfCuvMZr-23" value="" style="ellipse;whiteSpace=wrap;html=1;" vertex="1" parent="1">
          <mxGeometry x="1445" y="1417.5" width="160" height="60" as="geometry" />
        </mxCell>
        <mxCell id="-ugos-jLK1pMNfCuvMZr-24" value="" style="ellipse;whiteSpace=wrap;html=1;" vertex="1" parent="1">
          <mxGeometry x="1530" y="1323.75" width="160" height="60" as="geometry" />
        </mxCell>
        <mxCell id="-ugos-jLK1pMNfCuvMZr-25" value="" style="endArrow=none;html=1;rounded=0;entryX=0.5;entryY=0;entryDx=0;entryDy=0;exitX=0.5;exitY=1;exitDx=0;exitDy=0;" edge="1" parent="1" source="-ugos-jLK1pMNfCuvMZr-14" target="-ugos-jLK1pMNfCuvMZr-24">
          <mxGeometry width="50" height="50" relative="1" as="geometry">
            <mxPoint x="1435" y="1218.75" as="sourcePoint" />
            <mxPoint x="1635" y="1128.75" as="targetPoint" />
          </mxGeometry>
        </mxCell>
        <mxCell id="-ugos-jLK1pMNfCuvMZr-26" value="" style="endArrow=none;html=1;rounded=0;entryX=0.49;entryY=-0.151;entryDx=0;entryDy=0;entryPerimeter=0;" edge="1" parent="1" target="-ugos-jLK1pMNfCuvMZr-29">
          <mxGeometry width="50" height="50" relative="1" as="geometry">
            <mxPoint x="1435" y="1278.75" as="sourcePoint" />
            <mxPoint x="1635" y="1128.75" as="targetPoint" />
          </mxGeometry>
        </mxCell>
        <mxCell id="-ugos-jLK1pMNfCuvMZr-27" value="" style="endArrow=none;html=1;rounded=0;entryX=0.51;entryY=-0.154;entryDx=0;entryDy=0;entryPerimeter=0;" edge="1" parent="1" target="-ugos-jLK1pMNfCuvMZr-30">
          <mxGeometry width="50" height="50" relative="1" as="geometry">
            <mxPoint x="1435" y="1278.75" as="sourcePoint" />
            <mxPoint x="1635" y="1128.75" as="targetPoint" />
          </mxGeometry>
        </mxCell>
        <mxCell id="-ugos-jLK1pMNfCuvMZr-28" value="" style="endArrow=none;html=1;rounded=0;entryX=0.5;entryY=0;entryDx=0;entryDy=0;" edge="1" parent="1" target="-ugos-jLK1pMNfCuvMZr-23">
          <mxGeometry width="50" height="50" relative="1" as="geometry">
            <mxPoint x="1435" y="1278.75" as="sourcePoint" />
            <mxPoint x="1635" y="1128.75" as="targetPoint" />
          </mxGeometry>
        </mxCell>
        <mxCell id="-ugos-jLK1pMNfCuvMZr-29" value="Borrow_ID" style="text;html=1;align=center;verticalAlign=middle;whiteSpace=wrap;rounded=0;fontSize=20;" vertex="1" parent="1">
          <mxGeometry x="1180" y="1317.5" width="160" height="45" as="geometry" />
        </mxCell>
        <mxCell id="-ugos-jLK1pMNfCuvMZr-30" value="Borrow_Date" style="text;html=1;align=center;verticalAlign=middle;whiteSpace=wrap;rounded=0;fontSize=20;" vertex="1" parent="1">
          <mxGeometry x="1265" y="1425" width="160" height="45" as="geometry" />
        </mxCell>
        <mxCell id="-ugos-jLK1pMNfCuvMZr-31" value="Due_Date" style="text;html=1;align=center;verticalAlign=middle;whiteSpace=wrap;rounded=0;fontSize=20;" vertex="1" parent="1">
          <mxGeometry x="1445" y="1425" width="160" height="45" as="geometry" />
        </mxCell>
        <mxCell id="-ugos-jLK1pMNfCuvMZr-32" value="Return_Date" style="text;html=1;align=center;verticalAlign=middle;whiteSpace=wrap;rounded=0;fontSize=20;" vertex="1" parent="1">
          <mxGeometry x="1530" y="1331.25" width="160" height="45" as="geometry" />
        </mxCell>
        <mxCell id="-ugos-jLK1pMNfCuvMZr-33" value="" style="rounded=0;whiteSpace=wrap;html=1;" vertex="1" parent="1">
          <mxGeometry x="830" y="1380" width="160" height="60" as="geometry" />
        </mxCell>
        <mxCell id="-ugos-jLK1pMNfCuvMZr-34" value="" style="ellipse;whiteSpace=wrap;html=1;" vertex="1" parent="1">
          <mxGeometry x="740" y="1590" width="160" height="60" as="geometry" />
        </mxCell>
        <mxCell id="-ugos-jLK1pMNfCuvMZr-35" value="" style="ellipse;whiteSpace=wrap;html=1;" vertex="1" parent="1">
          <mxGeometry x="920" y="1590" width="160" height="60" as="geometry" />
        </mxCell>
        <mxCell id="-ugos-jLK1pMNfCuvMZr-36" value="" style="ellipse;whiteSpace=wrap;html=1;" vertex="1" parent="1">
          <mxGeometry x="1010" y="1510" width="160" height="60" as="geometry" />
        </mxCell>
        <mxCell id="-ugos-jLK1pMNfCuvMZr-37" value="" style="ellipse;whiteSpace=wrap;html=1;" vertex="1" parent="1">
          <mxGeometry x="640" y="1510" width="160" height="60" as="geometry" />
        </mxCell>
        <mxCell id="-ugos-jLK1pMNfCuvMZr-38" value="" style="endArrow=none;html=1;rounded=0;entryX=0.5;entryY=1;entryDx=0;entryDy=0;exitX=0.5;exitY=0;exitDx=0;exitDy=0;" edge="1" parent="1" source="-ugos-jLK1pMNfCuvMZr-34" target="-ugos-jLK1pMNfCuvMZr-33">
          <mxGeometry width="50" height="50" relative="1" as="geometry">
            <mxPoint x="1350" y="1310" as="sourcePoint" />
            <mxPoint x="1030" y="1450" as="targetPoint" />
          </mxGeometry>
        </mxCell>
        <mxCell id="-ugos-jLK1pMNfCuvMZr-39" value="" style="endArrow=none;html=1;rounded=0;entryX=0.5;entryY=1;entryDx=0;entryDy=0;exitX=0.5;exitY=0;exitDx=0;exitDy=0;" edge="1" parent="1" source="-ugos-jLK1pMNfCuvMZr-35" target="-ugos-jLK1pMNfCuvMZr-33">
          <mxGeometry width="50" height="50" relative="1" as="geometry">
            <mxPoint x="1350" y="1310" as="sourcePoint" />
            <mxPoint x="1400" y="1260" as="targetPoint" />
          </mxGeometry>
        </mxCell>
        <mxCell id="-ugos-jLK1pMNfCuvMZr-40" value="" style="endArrow=none;html=1;rounded=0;exitX=0.5;exitY=1;exitDx=0;exitDy=0;entryX=0.5;entryY=0;entryDx=0;entryDy=0;" edge="1" parent="1" source="-ugos-jLK1pMNfCuvMZr-33" target="-ugos-jLK1pMNfCuvMZr-37">
          <mxGeometry width="50" height="50" relative="1" as="geometry">
            <mxPoint x="1350" y="1310" as="sourcePoint" />
            <mxPoint x="1400" y="1260" as="targetPoint" />
          </mxGeometry>
        </mxCell>
        <mxCell id="-ugos-jLK1pMNfCuvMZr-41" value="" style="endArrow=none;html=1;rounded=0;exitX=0.5;exitY=1;exitDx=0;exitDy=0;entryX=0.5;entryY=0;entryDx=0;entryDy=0;" edge="1" parent="1" source="-ugos-jLK1pMNfCuvMZr-33" target="-ugos-jLK1pMNfCuvMZr-36">
          <mxGeometry width="50" height="50" relative="1" as="geometry">
            <mxPoint x="1350" y="1310" as="sourcePoint" />
            <mxPoint x="1400" y="1260" as="targetPoint" />
          </mxGeometry>
        </mxCell>
        <mxCell id="-ugos-jLK1pMNfCuvMZr-42" value="" style="endArrow=none;html=1;rounded=0;entryX=0.5;entryY=1;entryDx=0;entryDy=0;exitX=0.5;exitY=0;exitDx=0;exitDy=0;" edge="1" parent="1" source="-ugos-jLK1pMNfCuvMZr-33" target="-ugos-jLK1pMNfCuvMZr-18">
          <mxGeometry width="50" height="50" relative="1" as="geometry">
            <mxPoint x="1350" y="1300" as="sourcePoint" />
            <mxPoint x="1400" y="1250" as="targetPoint" />
          </mxGeometry>
        </mxCell>
        <mxCell id="-ugos-jLK1pMNfCuvMZr-43" value="" style="rhombus;whiteSpace=wrap;html=1;" vertex="1" parent="1">
          <mxGeometry x="1335" y="1030" width="200" height="90" as="geometry" />
        </mxCell>
        <mxCell id="-ugos-jLK1pMNfCuvMZr-44" value="Member" style="text;html=1;align=center;verticalAlign=middle;whiteSpace=wrap;rounded=0;fontSize=20;" vertex="1" parent="1">
          <mxGeometry x="830" y="1387.5" width="160" height="45" as="geometry" />
        </mxCell>
        <mxCell id="-ugos-jLK1pMNfCuvMZr-45" value="Member_ID" style="text;html=1;align=center;verticalAlign=middle;whiteSpace=wrap;rounded=0;fontSize=20;" vertex="1" parent="1">
          <mxGeometry x="640" y="1517.5" width="160" height="45" as="geometry" />
        </mxCell>
        <mxCell id="-ugos-jLK1pMNfCuvMZr-46" value="Name" style="text;html=1;align=center;verticalAlign=middle;whiteSpace=wrap;rounded=0;fontSize=20;" vertex="1" parent="1">
          <mxGeometry x="740" y="1597.5" width="160" height="45" as="geometry" />
        </mxCell>
        <mxCell id="-ugos-jLK1pMNfCuvMZr-47" value="Contact_Info" style="text;html=1;align=center;verticalAlign=middle;whiteSpace=wrap;rounded=0;fontSize=20;" vertex="1" parent="1">
          <mxGeometry x="920" y="1597.5" width="160" height="45" as="geometry" />
        </mxCell>
        <mxCell id="-ugos-jLK1pMNfCuvMZr-48" value="Join_Date" style="text;html=1;align=center;verticalAlign=middle;whiteSpace=wrap;rounded=0;fontSize=20;" vertex="1" parent="1">
          <mxGeometry x="1010" y="1517.5" width="160" height="45" as="geometry" />
        </mxCell>
        <mxCell id="-ugos-jLK1pMNfCuvMZr-49" value="Issued by" style="text;html=1;align=center;verticalAlign=middle;whiteSpace=wrap;rounded=0;fontSize=20;" vertex="1" parent="1">
          <mxGeometry x="1355" y="1052.5" width="160" height="45" as="geometry" />
        </mxCell>
        <mxCell id="-ugos-jLK1pMNfCuvMZr-50" value="" style="endArrow=none;html=1;rounded=0;entryX=0.5;entryY=1;entryDx=0;entryDy=0;" edge="1" parent="1" target="-ugos-jLK1pMNfCuvMZr-43">
          <mxGeometry width="50" height="50" relative="1" as="geometry">
            <mxPoint x="1435" y="1220" as="sourcePoint" />
            <mxPoint x="1390" y="465" as="targetPoint" />
          </mxGeometry>
        </mxCell>
        <mxCell id="-ugos-jLK1pMNfCuvMZr-51" value="" style="rounded=0;whiteSpace=wrap;html=1;" vertex="1" parent="1">
          <mxGeometry x="1355" y="872.5" width="160" height="60" as="geometry" />
        </mxCell>
        <mxCell id="-ugos-jLK1pMNfCuvMZr-52" value="Staff" style="text;html=1;align=center;verticalAlign=middle;whiteSpace=wrap;rounded=0;fontSize=20;" vertex="1" parent="1">
          <mxGeometry x="1355" y="880" width="160" height="45" as="geometry" />
        </mxCell>
        <mxCell id="-ugos-jLK1pMNfCuvMZr-53" value="" style="ellipse;whiteSpace=wrap;html=1;" vertex="1" parent="1">
          <mxGeometry x="1355" y="650" width="160" height="60" as="geometry" />
        </mxCell>
        <mxCell id="-ugos-jLK1pMNfCuvMZr-54" value="" style="ellipse;whiteSpace=wrap;html=1;" vertex="1" parent="1">
          <mxGeometry x="1175" y="650" width="160" height="60" as="geometry" />
        </mxCell>
        <mxCell id="-ugos-jLK1pMNfCuvMZr-55" value="" style="ellipse;whiteSpace=wrap;html=1;" vertex="1" parent="1">
          <mxGeometry x="1535" y="650" width="160" height="60" as="geometry" />
        </mxCell>
        <mxCell id="-ugos-jLK1pMNfCuvMZr-56" value="" style="endArrow=none;html=1;rounded=0;exitX=0.5;exitY=1;exitDx=0;exitDy=0;entryX=0.5;entryY=0;entryDx=0;entryDy=0;" edge="1" parent="1" source="-ugos-jLK1pMNfCuvMZr-53" target="-ugos-jLK1pMNfCuvMZr-51">
          <mxGeometry width="50" height="50" relative="1" as="geometry">
            <mxPoint x="1835" y="641.25" as="sourcePoint" />
            <mxPoint x="1450" y="850" as="targetPoint" />
          </mxGeometry>
        </mxCell>
        <mxCell id="-ugos-jLK1pMNfCuvMZr-57" value="" style="endArrow=none;html=1;rounded=0;entryX=0.5;entryY=1;entryDx=0;entryDy=0;exitX=0.5;exitY=0;exitDx=0;exitDy=0;" edge="1" parent="1" source="-ugos-jLK1pMNfCuvMZr-51" target="-ugos-jLK1pMNfCuvMZr-60">
          <mxGeometry width="50" height="50" relative="1" as="geometry">
            <mxPoint x="1815" y="551.25" as="sourcePoint" />
            <mxPoint x="1655" y="731.25" as="targetPoint" />
          </mxGeometry>
        </mxCell>
        <mxCell id="-ugos-jLK1pMNfCuvMZr-58" value="" style="endArrow=none;html=1;rounded=0;exitX=0.5;exitY=1;exitDx=0;exitDy=0;entryX=0.5;entryY=0;entryDx=0;entryDy=0;" edge="1" parent="1" source="-ugos-jLK1pMNfCuvMZr-59" target="-ugos-jLK1pMNfCuvMZr-51">
          <mxGeometry width="50" height="50" relative="1" as="geometry">
            <mxPoint x="1280" y="850" as="sourcePoint" />
            <mxPoint x="1460" y="840" as="targetPoint" />
          </mxGeometry>
        </mxCell>
        <mxCell id="-ugos-jLK1pMNfCuvMZr-59" value="" style="ellipse;whiteSpace=wrap;html=1;" vertex="1" parent="1">
          <mxGeometry x="1120" y="757.5" width="160" height="60" as="geometry" />
        </mxCell>
        <mxCell id="-ugos-jLK1pMNfCuvMZr-60" value="" style="ellipse;whiteSpace=wrap;html=1;" vertex="1" parent="1">
          <mxGeometry x="1605" y="757.5" width="160" height="60" as="geometry" />
        </mxCell>
        <mxCell id="-ugos-jLK1pMNfCuvMZr-61" value="" style="endArrow=none;html=1;rounded=0;exitX=0.5;exitY=1;exitDx=0;exitDy=0;entryX=0.5;entryY=0;entryDx=0;entryDy=0;" edge="1" parent="1" source="-ugos-jLK1pMNfCuvMZr-55" target="-ugos-jLK1pMNfCuvMZr-51">
          <mxGeometry width="50" height="50" relative="1" as="geometry">
            <mxPoint x="1935" y="531.25" as="sourcePoint" />
            <mxPoint x="1815" y="551.25" as="targetPoint" />
          </mxGeometry>
        </mxCell>
        <mxCell id="-ugos-jLK1pMNfCuvMZr-62" value="" style="endArrow=none;html=1;rounded=0;entryX=0.5;entryY=1;entryDx=0;entryDy=0;exitX=0.5;exitY=0;exitDx=0;exitDy=0;" edge="1" parent="1" source="-ugos-jLK1pMNfCuvMZr-51" target="-ugos-jLK1pMNfCuvMZr-54">
          <mxGeometry width="50" height="50" relative="1" as="geometry">
            <mxPoint x="1430" y="870" as="sourcePoint" />
            <mxPoint x="1235" y="730" as="targetPoint" />
          </mxGeometry>
        </mxCell>
        <mxCell id="-ugos-jLK1pMNfCuvMZr-63" value="Name" style="text;html=1;align=center;verticalAlign=middle;whiteSpace=wrap;rounded=0;fontSize=20;" vertex="1" parent="1">
          <mxGeometry x="1175" y="657.5" width="160" height="45" as="geometry" />
        </mxCell>
        <mxCell id="-ugos-jLK1pMNfCuvMZr-64" value="Staff_ID" style="text;html=1;align=center;verticalAlign=middle;whiteSpace=wrap;rounded=0;fontSize=20;" vertex="1" parent="1">
          <mxGeometry x="1120" y="765" width="160" height="45" as="geometry" />
        </mxCell>
        <mxCell id="-ugos-jLK1pMNfCuvMZr-65" value="Contact_Info" style="text;html=1;align=center;verticalAlign=middle;whiteSpace=wrap;rounded=0;fontSize=20;" vertex="1" parent="1">
          <mxGeometry x="1355" y="657.5" width="160" height="45" as="geometry" />
        </mxCell>
        <mxCell id="-ugos-jLK1pMNfCuvMZr-66" value="Job_Title" style="text;html=1;align=center;verticalAlign=middle;whiteSpace=wrap;rounded=0;fontSize=20;" vertex="1" parent="1">
          <mxGeometry x="1535" y="657.5" width="160" height="45" as="geometry" />
        </mxCell>
        <mxCell id="-ugos-jLK1pMNfCuvMZr-67" value="Hire_Date" style="text;html=1;align=center;verticalAlign=middle;whiteSpace=wrap;rounded=0;fontSize=20;" vertex="1" parent="1">
          <mxGeometry x="1605" y="765" width="160" height="45" as="geometry" />
        </mxCell>
        <mxCell id="-ugos-jLK1pMNfCuvMZr-68" value="" style="rhombus;whiteSpace=wrap;html=1;" vertex="1" parent="1">
          <mxGeometry x="2005" y="1600" width="200" height="80" as="geometry" />
        </mxCell>
        <mxCell id="-ugos-jLK1pMNfCuvMZr-69" value="" style="rounded=0;whiteSpace=wrap;html=1;" vertex="1" parent="1">
          <mxGeometry x="2020" y="1765" width="170" height="60" as="geometry" />
        </mxCell>
        <mxCell id="-ugos-jLK1pMNfCuvMZr-70" value="" style="ellipse;whiteSpace=wrap;html=1;" vertex="1" parent="1">
          <mxGeometry x="2025" y="1925" width="160" height="60" as="geometry" />
        </mxCell>
        <mxCell id="-ugos-jLK1pMNfCuvMZr-71" value="" style="ellipse;whiteSpace=wrap;html=1;" vertex="1" parent="1">
          <mxGeometry x="1840" y="1925" width="160" height="60" as="geometry" />
        </mxCell>
        <mxCell id="-ugos-jLK1pMNfCuvMZr-72" value="" style="ellipse;whiteSpace=wrap;html=1;" vertex="1" parent="1">
          <mxGeometry x="2200" y="1925" width="160" height="60" as="geometry" />
        </mxCell>
        <mxCell id="-ugos-jLK1pMNfCuvMZr-73" value="belongs to" style="text;html=1;align=center;verticalAlign=middle;whiteSpace=wrap;rounded=0;fontSize=20;" vertex="1" parent="1">
          <mxGeometry x="2025" y="1617.5" width="160" height="45" as="geometry" />
        </mxCell>
        <mxCell id="-ugos-jLK1pMNfCuvMZr-74" value="Catalog" style="text;html=1;align=center;verticalAlign=middle;whiteSpace=wrap;rounded=0;fontSize=20;" vertex="1" parent="1">
          <mxGeometry x="2025" y="1772.5" width="160" height="45" as="geometry" />
        </mxCell>
        <mxCell id="-ugos-jLK1pMNfCuvMZr-75" value="Catalog_ID" style="text;html=1;align=center;verticalAlign=middle;whiteSpace=wrap;rounded=0;fontSize=20;" vertex="1" parent="1">
          <mxGeometry x="1840" y="1932.5" width="160" height="45" as="geometry" />
        </mxCell>
        <mxCell id="-ugos-jLK1pMNfCuvMZr-76" value="Location" style="text;html=1;align=center;verticalAlign=middle;whiteSpace=wrap;rounded=0;fontSize=20;" vertex="1" parent="1">
          <mxGeometry x="2200" y="1932.5" width="160" height="45" as="geometry" />
        </mxCell>
        <mxCell id="-ugos-jLK1pMNfCuvMZr-77" value="" style="endArrow=none;html=1;rounded=0;entryX=0.509;entryY=1.188;entryDx=0;entryDy=0;entryPerimeter=0;exitX=0.5;exitY=0;exitDx=0;exitDy=0;" edge="1" parent="1" source="-ugos-jLK1pMNfCuvMZr-68" target="-ugos-jLK1pMNfCuvMZr-2">
          <mxGeometry width="50" height="50" relative="1" as="geometry">
            <mxPoint x="1930" y="1530" as="sourcePoint" />
            <mxPoint x="1980" y="1480" as="targetPoint" />
          </mxGeometry>
        </mxCell>
        <mxCell id="-ugos-jLK1pMNfCuvMZr-78" value="" style="endArrow=none;html=1;rounded=0;entryX=0.5;entryY=1;entryDx=0;entryDy=0;exitX=0.5;exitY=0;exitDx=0;exitDy=0;" edge="1" parent="1" source="-ugos-jLK1pMNfCuvMZr-69" target="-ugos-jLK1pMNfCuvMZr-68">
          <mxGeometry width="50" height="50" relative="1" as="geometry">
            <mxPoint x="1990" y="1665" as="sourcePoint" />
            <mxPoint x="2040" y="1615" as="targetPoint" />
          </mxGeometry>
        </mxCell>
        <mxCell id="-ugos-jLK1pMNfCuvMZr-79" value="" style="endArrow=none;html=1;rounded=0;entryX=0.5;entryY=1;entryDx=0;entryDy=0;exitX=0.5;exitY=0;exitDx=0;exitDy=0;" edge="1" parent="1" source="-ugos-jLK1pMNfCuvMZr-71" target="-ugos-jLK1pMNfCuvMZr-69">
          <mxGeometry width="50" height="50" relative="1" as="geometry">
            <mxPoint x="1990" y="1895" as="sourcePoint" />
            <mxPoint x="2040" y="1845" as="targetPoint" />
          </mxGeometry>
        </mxCell>
        <mxCell id="-ugos-jLK1pMNfCuvMZr-80" value="" style="endArrow=none;html=1;rounded=0;entryX=0.5;entryY=1;entryDx=0;entryDy=0;exitX=0.5;exitY=0;exitDx=0;exitDy=0;" edge="1" parent="1" source="-ugos-jLK1pMNfCuvMZr-70" target="-ugos-jLK1pMNfCuvMZr-69">
          <mxGeometry width="50" height="50" relative="1" as="geometry">
            <mxPoint x="1990" y="1895" as="sourcePoint" />
            <mxPoint x="2040" y="1845" as="targetPoint" />
          </mxGeometry>
        </mxCell>
        <mxCell id="-ugos-jLK1pMNfCuvMZr-81" value="" style="endArrow=none;html=1;rounded=0;exitX=0.5;exitY=0;exitDx=0;exitDy=0;" edge="1" parent="1" source="-ugos-jLK1pMNfCuvMZr-72">
          <mxGeometry width="50" height="50" relative="1" as="geometry">
            <mxPoint x="2020" y="1895" as="sourcePoint" />
            <mxPoint x="2105" y="1825" as="targetPoint" />
          </mxGeometry>
        </mxCell>
        <mxCell id="-ugos-jLK1pMNfCuvMZr-82" value="Name" style="text;html=1;align=center;verticalAlign=middle;whiteSpace=wrap;rounded=0;fontSize=20;" vertex="1" parent="1">
          <mxGeometry x="2025" y="1932.5" width="160" height="45" as="geometry" />
        </mxCell>
        <mxCell id="-ugos-jLK1pMNfCuvMZr-83" value="" style="rhombus;whiteSpace=wrap;html=1;" vertex="1" parent="1">
          <mxGeometry x="2005" y="1025" width="200" height="100" as="geometry" />
        </mxCell>
        <mxCell id="-ugos-jLK1pMNfCuvMZr-84" value="" style="rhombus;whiteSpace=wrap;html=1;" vertex="1" parent="1">
          <mxGeometry x="2370" y="1200" width="200" height="100" as="geometry" />
        </mxCell>
        <mxCell id="-ugos-jLK1pMNfCuvMZr-85" value="Authorship" style="text;html=1;align=center;verticalAlign=middle;whiteSpace=wrap;rounded=0;fontSize=20;" vertex="1" parent="1">
          <mxGeometry x="2440" y="1235" width="60" height="30" as="geometry" />
        </mxCell>
        <mxCell id="-ugos-jLK1pMNfCuvMZr-86" value="" style="ellipse;whiteSpace=wrap;html=1;" vertex="1" parent="1">
          <mxGeometry x="2390" y="1400" width="160" height="60" as="geometry" />
        </mxCell>
        <mxCell id="-ugos-jLK1pMNfCuvMZr-87" value="Authorship_ID" style="text;html=1;align=center;verticalAlign=middle;whiteSpace=wrap;rounded=0;fontSize=20;" vertex="1" parent="1">
          <mxGeometry x="2440" y="1415" width="60" height="30" as="geometry" />
        </mxCell>
        <mxCell id="-ugos-jLK1pMNfCuvMZr-88" value="" style="ellipse;whiteSpace=wrap;html=1;" vertex="1" parent="1">
          <mxGeometry x="2025" y="730" width="160" height="60" as="geometry" />
        </mxCell>
        <mxCell id="-ugos-jLK1pMNfCuvMZr-89" value="" style="rounded=0;whiteSpace=wrap;html=1;" vertex="1" parent="1">
          <mxGeometry x="2015" y="872.5" width="180" height="60" as="geometry" />
        </mxCell>
        <mxCell id="-ugos-jLK1pMNfCuvMZr-90" value="" style="ellipse;whiteSpace=wrap;html=1;" vertex="1" parent="1">
          <mxGeometry x="2195" y="730" width="160" height="60" as="geometry" />
        </mxCell>
        <mxCell id="-ugos-jLK1pMNfCuvMZr-91" value="" style="ellipse;whiteSpace=wrap;html=1;" vertex="1" parent="1">
          <mxGeometry x="1855" y="730" width="160" height="60" as="geometry" />
        </mxCell>
        <mxCell id="-ugos-jLK1pMNfCuvMZr-93" value="" style="endArrow=none;html=1;rounded=0;exitX=0.5;exitY=1;exitDx=0;exitDy=0;entryX=0.5;entryY=0;entryDx=0;entryDy=0;" edge="1" parent="1" source="-ugos-jLK1pMNfCuvMZr-88" target="-ugos-jLK1pMNfCuvMZr-89">
          <mxGeometry width="50" height="50" relative="1" as="geometry">
            <mxPoint x="2300" y="857.5" as="sourcePoint" />
            <mxPoint x="2190" y="907.5" as="targetPoint" />
          </mxGeometry>
        </mxCell>
        <mxCell id="-ugos-jLK1pMNfCuvMZr-94" value="" style="endArrow=none;html=1;rounded=0;exitX=0.5;exitY=1;exitDx=0;exitDy=0;entryX=0.5;entryY=0;entryDx=0;entryDy=0;" edge="1" parent="1" source="-ugos-jLK1pMNfCuvMZr-90" target="-ugos-jLK1pMNfCuvMZr-89">
          <mxGeometry width="50" height="50" relative="1" as="geometry">
            <mxPoint x="2010" y="1062.5" as="sourcePoint" />
            <mxPoint x="2170" y="1002.5" as="targetPoint" />
          </mxGeometry>
        </mxCell>
        <mxCell id="-ugos-jLK1pMNfCuvMZr-95" value="" style="endArrow=none;html=1;rounded=0;entryX=0.5;entryY=0;entryDx=0;entryDy=0;exitX=0.5;exitY=1;exitDx=0;exitDy=0;" edge="1" parent="1" source="-ugos-jLK1pMNfCuvMZr-91" target="-ugos-jLK1pMNfCuvMZr-89">
          <mxGeometry width="50" height="50" relative="1" as="geometry">
            <mxPoint x="1930" y="830" as="sourcePoint" />
            <mxPoint x="2150" y="943.75" as="targetPoint" />
          </mxGeometry>
        </mxCell>
        <mxCell id="-ugos-jLK1pMNfCuvMZr-96" value="associated with" style="text;html=1;align=center;verticalAlign=middle;whiteSpace=wrap;rounded=0;fontSize=20;" vertex="1" parent="1">
          <mxGeometry x="2075" y="1060" width="60" height="30" as="geometry" />
        </mxCell>
        <mxCell id="-ugos-jLK1pMNfCuvMZr-97" value="Genre" style="text;html=1;align=center;verticalAlign=middle;whiteSpace=wrap;rounded=0;fontSize=20;" vertex="1" parent="1">
          <mxGeometry x="2075" y="887.5" width="60" height="30" as="geometry" />
        </mxCell>
        <mxCell id="-ugos-jLK1pMNfCuvMZr-98" value="Name" style="text;html=1;align=center;verticalAlign=middle;whiteSpace=wrap;rounded=0;fontSize=20;" vertex="1" parent="1">
          <mxGeometry x="2075" y="745" width="60" height="30" as="geometry" />
        </mxCell>
        <mxCell id="-ugos-jLK1pMNfCuvMZr-99" value="Description" style="text;html=1;align=center;verticalAlign=middle;whiteSpace=wrap;rounded=0;fontSize=20;" vertex="1" parent="1">
          <mxGeometry x="2245" y="745" width="60" height="30" as="geometry" />
        </mxCell>
        <mxCell id="-ugos-jLK1pMNfCuvMZr-100" value="Genre_ID" style="text;html=1;align=center;verticalAlign=middle;whiteSpace=wrap;rounded=0;fontSize=20;" vertex="1" parent="1">
          <mxGeometry x="1905" y="745" width="60" height="30" as="geometry" />
        </mxCell>
        <mxCell id="-ugos-jLK1pMNfCuvMZr-101" value="" style="rounded=0;whiteSpace=wrap;html=1;" vertex="1" parent="1">
          <mxGeometry x="2700" y="1220" width="180" height="60" as="geometry" />
        </mxCell>
        <mxCell id="-ugos-jLK1pMNfCuvMZr-103" value="" style="ellipse;whiteSpace=wrap;html=1;" vertex="1" parent="1">
          <mxGeometry x="2980" y="1266.25" width="160" height="60" as="geometry" />
        </mxCell>
        <mxCell id="-ugos-jLK1pMNfCuvMZr-104" value="" style="ellipse;whiteSpace=wrap;html=1;" vertex="1" parent="1">
          <mxGeometry x="2980" y="1078.75" width="160" height="60" as="geometry" />
        </mxCell>
        <mxCell id="-ugos-jLK1pMNfCuvMZr-105" value="" style="ellipse;whiteSpace=wrap;html=1;" vertex="1" parent="1">
          <mxGeometry x="2980" y="1361.25" width="160" height="60" as="geometry" />
        </mxCell>
        <mxCell id="-ugos-jLK1pMNfCuvMZr-106" value="Author" style="text;html=1;align=center;verticalAlign=middle;whiteSpace=wrap;rounded=0;fontSize=20;" vertex="1" parent="1">
          <mxGeometry x="2760" y="1235" width="60" height="30" as="geometry" />
        </mxCell>
        <mxCell id="-ugos-jLK1pMNfCuvMZr-107" value="Nationality" style="text;html=1;align=center;verticalAlign=middle;whiteSpace=wrap;rounded=0;fontSize=20;" vertex="1" parent="1">
          <mxGeometry x="3030" y="1376.25" width="60" height="30" as="geometry" />
        </mxCell>
        <mxCell id="-ugos-jLK1pMNfCuvMZr-108" value="Birth_Date" style="text;html=1;align=center;verticalAlign=middle;whiteSpace=wrap;rounded=0;fontSize=20;" vertex="1" parent="1">
          <mxGeometry x="3030" y="1281.25" width="60" height="30" as="geometry" />
        </mxCell>
        <mxCell id="-ugos-jLK1pMNfCuvMZr-109" value="" style="ellipse;whiteSpace=wrap;html=1;" vertex="1" parent="1">
          <mxGeometry x="2980" y="1173.75" width="160" height="60" as="geometry" />
        </mxCell>
        <mxCell id="-ugos-jLK1pMNfCuvMZr-110" value="" style="endArrow=none;html=1;rounded=0;exitX=0.5;exitY=0;exitDx=0;exitDy=0;entryX=0.5;entryY=1;entryDx=0;entryDy=0;" edge="1" parent="1" source="-ugos-jLK1pMNfCuvMZr-86" target="-ugos-jLK1pMNfCuvMZr-84">
          <mxGeometry width="50" height="50" relative="1" as="geometry">
            <mxPoint x="2590" y="1180" as="sourcePoint" />
            <mxPoint x="2640" y="1130" as="targetPoint" />
          </mxGeometry>
        </mxCell>
        <mxCell id="-ugos-jLK1pMNfCuvMZr-111" value="Author_ID" style="text;html=1;align=center;verticalAlign=middle;whiteSpace=wrap;rounded=0;fontSize=20;" vertex="1" parent="1">
          <mxGeometry x="3030" y="1093.75" width="60" height="30" as="geometry" />
        </mxCell>
        <mxCell id="-ugos-jLK1pMNfCuvMZr-112" value="Name" style="text;html=1;align=center;verticalAlign=middle;whiteSpace=wrap;rounded=0;fontSize=20;" vertex="1" parent="1">
          <mxGeometry x="3030" y="1188.75" width="60" height="30" as="geometry" />
        </mxCell>
        <mxCell id="-ugos-jLK1pMNfCuvMZr-113" value="" style="endArrow=none;html=1;rounded=0;entryX=0;entryY=0.5;entryDx=0;entryDy=0;exitX=1;exitY=0.5;exitDx=0;exitDy=0;" edge="1" parent="1" source="-ugos-jLK1pMNfCuvMZr-101" target="-ugos-jLK1pMNfCuvMZr-105">
          <mxGeometry width="50" height="50" relative="1" as="geometry">
            <mxPoint x="2950" y="1220" as="sourcePoint" />
            <mxPoint x="3000" y="1170" as="targetPoint" />
          </mxGeometry>
        </mxCell>
        <mxCell id="-ugos-jLK1pMNfCuvMZr-114" value="" style="endArrow=none;html=1;rounded=0;entryX=0;entryY=0.5;entryDx=0;entryDy=0;exitX=1;exitY=0.5;exitDx=0;exitDy=0;" edge="1" parent="1" source="-ugos-jLK1pMNfCuvMZr-101" target="-ugos-jLK1pMNfCuvMZr-103">
          <mxGeometry width="50" height="50" relative="1" as="geometry">
            <mxPoint x="2850" y="1230" as="sourcePoint" />
            <mxPoint x="2730" y="1120" as="targetPoint" />
          </mxGeometry>
        </mxCell>
        <mxCell id="-ugos-jLK1pMNfCuvMZr-115" value="" style="endArrow=none;html=1;rounded=0;entryX=0;entryY=0.5;entryDx=0;entryDy=0;" edge="1" parent="1" target="-ugos-jLK1pMNfCuvMZr-104">
          <mxGeometry width="50" height="50" relative="1" as="geometry">
            <mxPoint x="2880" y="1250" as="sourcePoint" />
            <mxPoint x="2820" y="1080" as="targetPoint" />
          </mxGeometry>
        </mxCell>
        <mxCell id="-ugos-jLK1pMNfCuvMZr-116" value="" style="endArrow=none;html=1;rounded=0;entryX=0;entryY=0.5;entryDx=0;entryDy=0;exitX=1;exitY=0.5;exitDx=0;exitDy=0;" edge="1" parent="1" source="-ugos-jLK1pMNfCuvMZr-101" target="-ugos-jLK1pMNfCuvMZr-109">
          <mxGeometry width="50" height="50" relative="1" as="geometry">
            <mxPoint x="2900" y="1250" as="sourcePoint" />
            <mxPoint x="2980" y="1090" as="targetPoint" />
          </mxGeometry>
        </mxCell>
        <mxCell id="-ugos-jLK1pMNfCuvMZr-118" value="" style="endArrow=none;html=1;rounded=0;exitX=0.5;exitY=1;exitDx=0;exitDy=0;entryX=0.5;entryY=0;entryDx=0;entryDy=0;" edge="1" parent="1" source="-ugos-jLK1pMNfCuvMZr-89" target="-ugos-jLK1pMNfCuvMZr-83">
          <mxGeometry width="50" height="50" relative="1" as="geometry">
            <mxPoint x="2098.89" y="930" as="sourcePoint" />
            <mxPoint x="2098.89" y="1025" as="targetPoint" />
          </mxGeometry>
        </mxCell>
        <mxCell id="-ugos-jLK1pMNfCuvMZr-119" value="" style="endArrow=none;html=1;rounded=0;exitX=0.5;exitY=0;exitDx=0;exitDy=0;entryX=0.5;entryY=1;entryDx=0;entryDy=0;" edge="1" parent="1" source="-ugos-jLK1pMNfCuvMZr-43" target="-ugos-jLK1pMNfCuvMZr-51">
          <mxGeometry width="50" height="50" relative="1" as="geometry">
            <mxPoint x="1450" y="1010" as="sourcePoint" />
            <mxPoint x="1450" y="960" as="targetPoint" />
          </mxGeometry>
        </mxCell>
        <mxCell id="-ugos-jLK1pMNfCuvMZr-120" value="" style="endArrow=none;html=1;rounded=0;exitX=1.008;exitY=0.639;exitDx=0;exitDy=0;exitPerimeter=0;entryX=0.064;entryY=0.572;entryDx=0;entryDy=0;entryPerimeter=0;" edge="1" parent="1" source="-ugos-jLK1pMNfCuvMZr-1" target="-ugos-jLK1pMNfCuvMZr-84">
          <mxGeometry width="50" height="50" relative="1" as="geometry">
            <mxPoint x="2210" y="1270" as="sourcePoint" />
            <mxPoint x="2360" y="1290" as="targetPoint" />
          </mxGeometry>
        </mxCell>
        <mxCell id="-ugos-jLK1pMNfCuvMZr-121" value="" style="endArrow=none;html=1;rounded=0;exitX=0.957;exitY=0.555;exitDx=0;exitDy=0;exitPerimeter=0;entryX=0.003;entryY=0.599;entryDx=0;entryDy=0;entryPerimeter=0;" edge="1" parent="1" source="-ugos-jLK1pMNfCuvMZr-84" target="-ugos-jLK1pMNfCuvMZr-101">
          <mxGeometry width="50" height="50" relative="1" as="geometry">
            <mxPoint x="2600" y="1270" as="sourcePoint" />
            <mxPoint x="2690" y="1260" as="targetPoint" />
          </mxGeometry>
        </mxCell>
        <mxCell id="-ugos-jLK1pMNfCuvMZr-122" value="" style="endArrow=none;html=1;rounded=0;exitX=0.533;exitY=-0.011;exitDx=0;exitDy=0;exitPerimeter=0;entryX=0.528;entryY=0.976;entryDx=0;entryDy=0;entryPerimeter=0;" edge="1" parent="1" source="-ugos-jLK1pMNfCuvMZr-1" target="-ugos-jLK1pMNfCuvMZr-83">
          <mxGeometry width="50" height="50" relative="1" as="geometry">
            <mxPoint x="2120" y="1190" as="sourcePoint" />
            <mxPoint x="2170" y="1140" as="targetPoint" />
          </mxGeometry>
        </mxCell>
        <mxCell id="-ugos-jLK1pMNfCuvMZr-123" value="" style="endArrow=none;html=1;rounded=0;entryX=0.56;entryY=1.129;entryDx=0;entryDy=0;entryPerimeter=0;exitX=0.553;exitY=0.067;exitDx=0;exitDy=0;exitPerimeter=0;" edge="1" parent="1" source="-ugos-jLK1pMNfCuvMZr-68" target="-ugos-jLK1pMNfCuvMZr-2">
          <mxGeometry width="50" height="50" relative="1" as="geometry">
            <mxPoint x="2160" y="1580" as="sourcePoint" />
            <mxPoint x="2130" y="1340" as="targetPoint" />
          </mxGeometry>
        </mxCell>
        <mxCell id="-ugos-jLK1pMNfCuvMZr-124" value="" style="endArrow=none;html=1;rounded=0;exitX=1;exitY=0.75;exitDx=0;exitDy=0;entryX=0;entryY=0.75;entryDx=0;entryDy=0;" edge="1" parent="1" source="-ugos-jLK1pMNfCuvMZr-19" target="-ugos-jLK1pMNfCuvMZr-15">
          <mxGeometry width="50" height="50" relative="1" as="geometry">
            <mxPoint x="1450" y="1200" as="sourcePoint" />
            <mxPoint x="1500" y="1150" as="targetPoint" />
          </mxGeometry>
        </mxCell>
        <mxCell id="-ugos-jLK1pMNfCuvMZr-125" value="" style="endArrow=none;html=1;rounded=0;exitX=1;exitY=0.75;exitDx=0;exitDy=0;entryX=0.092;entryY=0.611;entryDx=0;entryDy=0;entryPerimeter=0;" edge="1" parent="1" source="-ugos-jLK1pMNfCuvMZr-15" target="-ugos-jLK1pMNfCuvMZr-12">
          <mxGeometry width="50" height="50" relative="1" as="geometry">
            <mxPoint x="1600" y="1200" as="sourcePoint" />
            <mxPoint x="1650" y="1150" as="targetPoint" />
          </mxGeometry>
        </mxCell>
        <mxCell id="-ugos-jLK1pMNfCuvMZr-126" value="&lt;font style=&quot;font-size: 20px;&quot;&gt;n&lt;/font&gt;" style="text;html=1;align=center;verticalAlign=middle;whiteSpace=wrap;rounded=0;strokeWidth=17;" vertex="1" parent="1">
          <mxGeometry x="1585" y="1210" width="60" height="30" as="geometry" />
        </mxCell>
        <mxCell id="-ugos-jLK1pMNfCuvMZr-128" value="&lt;font style=&quot;font-size: 20px;&quot;&gt;n&lt;/font&gt;" style="text;html=1;align=center;verticalAlign=middle;whiteSpace=wrap;rounded=0;strokeWidth=17;" vertex="1" parent="1">
          <mxGeometry x="1160" y="1210" width="60" height="30" as="geometry" />
        </mxCell>
        <mxCell id="-ugos-jLK1pMNfCuvMZr-129" value="" style="endArrow=none;html=1;rounded=0;exitX=0.597;exitY=-0.175;exitDx=0;exitDy=0;exitPerimeter=0;entryX=0.571;entryY=0.912;entryDx=0;entryDy=0;entryPerimeter=0;" edge="1" parent="1" source="-ugos-jLK1pMNfCuvMZr-15" target="-ugos-jLK1pMNfCuvMZr-43">
          <mxGeometry width="50" height="50" relative="1" as="geometry">
            <mxPoint x="1560" y="1050" as="sourcePoint" />
            <mxPoint x="1480" y="1150" as="targetPoint" />
          </mxGeometry>
        </mxCell>
        <mxCell id="-ugos-jLK1pMNfCuvMZr-130" value="&lt;font style=&quot;font-size: 20px;&quot;&gt;n&lt;/font&gt;" style="text;html=1;align=center;verticalAlign=middle;whiteSpace=wrap;rounded=0;strokeWidth=17;" vertex="1" parent="1">
          <mxGeometry x="1440" y="1143.75" width="60" height="30" as="geometry" />
        </mxCell>
        <mxCell id="-ugos-jLK1pMNfCuvMZr-132" value="&lt;font style=&quot;font-size: 20px;&quot;&gt;1&lt;/font&gt;" style="text;html=1;align=center;verticalAlign=middle;whiteSpace=wrap;rounded=0;strokeWidth=17;" vertex="1" parent="1">
          <mxGeometry x="1425" y="970" width="60" height="30" as="geometry" />
        </mxCell>
        <mxCell id="-ugos-jLK1pMNfCuvMZr-133" value="&lt;font style=&quot;font-size: 20px;&quot;&gt;1&lt;/font&gt;" style="text;html=1;align=center;verticalAlign=middle;whiteSpace=wrap;rounded=0;strokeWidth=17;" vertex="1" parent="1">
          <mxGeometry x="1930" y="1210" width="60" height="30" as="geometry" />
        </mxCell>
        <mxCell id="-ugos-jLK1pMNfCuvMZr-134" value="&lt;font style=&quot;font-size: 20px;&quot;&gt;1&lt;/font&gt;" style="text;html=1;align=center;verticalAlign=middle;whiteSpace=wrap;rounded=0;strokeWidth=17;" vertex="1" parent="1">
          <mxGeometry x="900" y="1323.75" width="60" height="30" as="geometry" />
        </mxCell>
        <mxCell id="-ugos-jLK1pMNfCuvMZr-135" value="&lt;font style=&quot;font-size: 20px;&quot;&gt;n&lt;/font&gt;" style="text;html=1;align=center;verticalAlign=middle;whiteSpace=wrap;rounded=0;strokeWidth=17;" vertex="1" parent="1">
          <mxGeometry x="2250" y="1210" width="60" height="30" as="geometry" />
        </mxCell>
        <mxCell id="-ugos-jLK1pMNfCuvMZr-136" value="&lt;font style=&quot;font-size: 20px;&quot;&gt;n&lt;/font&gt;" style="text;html=1;align=center;verticalAlign=middle;whiteSpace=wrap;rounded=0;strokeWidth=17;" vertex="1" parent="1">
          <mxGeometry x="2100" y="1158.75" width="60" height="30" as="geometry" />
        </mxCell>
        <mxCell id="-ugos-jLK1pMNfCuvMZr-137" value="&lt;font style=&quot;font-size: 20px;&quot;&gt;n&lt;/font&gt;" style="text;html=1;align=center;verticalAlign=middle;whiteSpace=wrap;rounded=0;strokeWidth=17;" vertex="1" parent="1">
          <mxGeometry x="2600" y="1210" width="60" height="30" as="geometry" />
        </mxCell>
        <mxCell id="-ugos-jLK1pMNfCuvMZr-139" value="&lt;font style=&quot;font-size: 20px;&quot;&gt;1&lt;/font&gt;" style="text;html=1;align=center;verticalAlign=middle;whiteSpace=wrap;rounded=0;strokeWidth=17;" vertex="1" parent="1">
          <mxGeometry x="2090" y="970" width="60" height="30" as="geometry" />
        </mxCell>
        <mxCell id="-ugos-jLK1pMNfCuvMZr-140" value="&lt;font style=&quot;font-size: 20px;&quot;&gt;n&lt;/font&gt;" style="text;html=1;align=center;verticalAlign=middle;whiteSpace=wrap;rounded=0;strokeWidth=17;" vertex="1" parent="1">
          <mxGeometry x="2110" y="1490" width="60" height="30" as="geometry" />
        </mxCell>
        <mxCell id="-ugos-jLK1pMNfCuvMZr-141" value="&lt;font style=&quot;font-size: 20px;&quot;&gt;1&lt;/font&gt;" style="text;html=1;align=center;verticalAlign=middle;whiteSpace=wrap;rounded=0;strokeWidth=17;" vertex="1" parent="1">
          <mxGeometry x="2090" y="1710" width="60" height="30" as="geometry" />
        </mxCell>
        <mxCell id="-ugos-jLK1pMNfCuvMZr-143" value="" style="endArrow=none;html=1;rounded=0;" edge="1" parent="1">
          <mxGeometry width="50" height="50" relative="1" as="geometry">
            <mxPoint x="1755" y="1443.89" as="sourcePoint" />
            <mxPoint x="1865" y="1443.89" as="targetPoint" />
          </mxGeometry>
        </mxCell>
        <mxCell id="-ugos-jLK1pMNfCuvMZr-145" value="" style="endArrow=none;html=1;rounded=0;" edge="1" parent="1">
          <mxGeometry width="50" height="50" relative="1" as="geometry">
            <mxPoint x="1865" y="1970.0000000000002" as="sourcePoint" />
            <mxPoint x="1975" y="1970.0000000000002" as="targetPoint" />
          </mxGeometry>
        </mxCell>
        <mxCell id="-ugos-jLK1pMNfCuvMZr-148" value="" style="endArrow=none;html=1;rounded=0;exitX=0.1;exitY=0.723;exitDx=0;exitDy=0;exitPerimeter=0;" edge="1" parent="1" source="-ugos-jLK1pMNfCuvMZr-86">
          <mxGeometry width="50" height="50" relative="1" as="geometry">
            <mxPoint x="2420" y="1443.8900000000003" as="sourcePoint" />
            <mxPoint x="2530" y="1443.8900000000003" as="targetPoint" />
          </mxGeometry>
        </mxCell>
        <mxCell id="-ugos-jLK1pMNfCuvMZr-149" value="" style="endArrow=none;html=1;rounded=0;" edge="1" parent="1">
          <mxGeometry width="50" height="50" relative="1" as="geometry">
            <mxPoint x="3005" y="1125" as="sourcePoint" />
            <mxPoint x="3115" y="1125" as="targetPoint" />
          </mxGeometry>
        </mxCell>
        <mxCell id="-ugos-jLK1pMNfCuvMZr-150" value="" style="endArrow=none;html=1;rounded=0;" edge="1" parent="1">
          <mxGeometry width="50" height="50" relative="1" as="geometry">
            <mxPoint x="1880" y="775" as="sourcePoint" />
            <mxPoint x="1990" y="775" as="targetPoint" />
          </mxGeometry>
        </mxCell>
        <mxCell id="-ugos-jLK1pMNfCuvMZr-153" value="" style="endArrow=none;html=1;rounded=0;" edge="1" parent="1">
          <mxGeometry width="50" height="50" relative="1" as="geometry">
            <mxPoint x="1205" y="1353.7500000000002" as="sourcePoint" />
            <mxPoint x="1315" y="1353.7500000000002" as="targetPoint" />
          </mxGeometry>
        </mxCell>
        <mxCell id="-ugos-jLK1pMNfCuvMZr-154" value="" style="endArrow=none;html=1;rounded=0;" edge="1" parent="1">
          <mxGeometry width="50" height="50" relative="1" as="geometry">
            <mxPoint x="1145" y="800.0000000000002" as="sourcePoint" />
            <mxPoint x="1255" y="800.0000000000002" as="targetPoint" />
          </mxGeometry>
        </mxCell>
        <mxCell id="-ugos-jLK1pMNfCuvMZr-155" value="" style="endArrow=none;html=1;rounded=0;" edge="1" parent="1">
          <mxGeometry width="50" height="50" relative="1" as="geometry">
            <mxPoint x="665" y="1560.0000000000002" as="sourcePoint" />
            <mxPoint x="775" y="1560.0000000000002" as="targetPoint" />
          </mxGeometry>
        </mxCell>
      </root>
    </mxGraphModel>
  </diagram>
</mxfile>
